<svg width="180" height="175" viewBox="0 0 180 175" fill="none" xmlns="http://www.w3.org/2000/svg">
<g clip-path="url(#clip0_115_1684)">
<path d="M104.658 130.677H85.6396V0.668945H104.658V130.677Z" fill="black"/>
<path d="M131.67 173.473H126.365V137.201H131.67V173.473Z" fill="black"/>
<path d="M148.048 92.2305C154.134 89.8214 159.841 86.4713 164.595 81.833C173.914 72.7327 178.86 60.8452 178.86 48.0297C178.86 35.5856 173.914 23.3292 164.595 14.5978C155.086 5.8677 143.295 0.668945 130.172 0.668945H113.435V20.1706H130.172C145.957 20.1706 159.08 32.4283 159.08 48.0297C159.08 63.4472 145.957 76.0751 130.172 76.0751H113.435V95.5768H125.226L154.134 130.681H180L148.048 92.2305Z" fill="black"/>
<path d="M26.2799 157.358H2.56299V137.197H31.745V142.482H7.97481V152.067H31.745V173.468H2.56299V168.182H26.2799V157.358Z" fill="black"/>
<path d="M49.7828 142.538V173.477H44.3697V142.538H34.7134V137.201H59.4457V142.538H49.7828Z" fill="black"/>
<path d="M87.9289 137.201V173.473H63.5186V137.201H68.9304V168.14H82.4612V137.201H87.9289Z" fill="black"/>
<path d="M120.928 155.337C120.925 157.799 120.401 160.233 119.39 162.487C118.363 164.651 116.922 166.603 115.145 168.239C111.43 171.607 106.55 173.473 101.349 173.473H92.541V137.201H101.349C106.543 137.201 111.43 139.066 115.145 142.435C116.978 144.072 118.44 146.066 119.436 148.288C120.432 150.51 120.94 152.912 120.928 155.337ZM115.357 155.337C115.357 148.29 109.096 142.642 101.349 142.642H98.0087V168.032H101.352C109.096 168.032 115.357 162.338 115.357 155.337Z" fill="black"/>
<path d="M156.957 174.664C145.975 174.664 137.113 165.959 137.113 155.285C137.113 152.74 137.627 150.22 138.624 147.869C139.621 145.518 141.083 143.382 142.925 141.582C144.768 139.783 146.956 138.355 149.363 137.381C151.771 136.407 154.351 135.906 156.957 135.906C159.563 135.906 162.143 136.407 164.551 137.381C166.958 138.355 169.146 139.783 170.989 141.582C172.831 143.382 174.293 145.518 175.29 147.869C176.288 150.22 176.801 152.74 176.801 155.285C176.794 165.959 167.881 174.664 156.957 174.664ZM146.876 165.079C148.197 166.376 149.768 167.406 151.498 168.108C153.228 168.81 155.083 169.172 156.957 169.172C158.831 169.172 160.686 168.81 162.416 168.108C164.146 167.406 165.717 166.376 167.038 165.079C169.745 162.487 171.177 158.963 171.177 155.285C171.177 151.555 169.749 148.031 167.038 145.44C165.72 144.135 164.151 143.098 162.422 142.387C160.692 141.676 158.835 141.306 156.959 141.299C155.082 141.291 153.222 141.646 151.487 142.343C149.751 143.039 148.173 144.064 146.844 145.359C145.516 146.653 144.462 148.191 143.744 149.884C143.026 151.577 142.658 153.392 142.661 155.225C142.664 157.058 143.038 158.872 143.761 160.563C144.485 162.254 145.543 163.789 146.876 165.079Z" fill="black"/>
<path d="M0 130.677H76.8639V112.02H33.0915L55.0024 74.9579H76.8639V56.3844H65.9831L76.8639 37.9807V0.665039L0 130.677Z" fill="#00BFFF"/>
<path d="M156.624 143.774H156.884C157.033 143.797 157.183 143.829 157.333 143.84C158.493 143.932 159.582 144.24 160.546 144.89C161.974 145.853 162.135 147.613 160.908 148.797C160.589 149.086 160.25 149.352 159.892 149.594C159.191 150.083 158.59 150.697 158.123 151.404C157.912 151.731 157.947 151.784 158.285 151.952C158.625 152.116 158.951 152.307 159.259 152.524C159.464 152.669 159.598 152.676 159.799 152.524C160.392 152.059 160.987 151.593 161.617 151.176C162.446 150.601 163.401 150.221 164.406 150.067C165.774 149.879 166.873 150.321 167.652 151.447C168.285 152.361 168.575 153.385 168.649 154.475C168.659 154.632 168.693 154.788 168.717 154.945V155.199C168.693 155.345 168.661 155.491 168.648 155.638C168.546 156.768 168.241 157.834 167.574 158.776C166.71 159.997 165.171 160.312 163.971 159.454C163.51 159.125 163.155 158.638 162.802 158.186C162.265 157.509 161.684 156.885 160.936 156.425C160.568 156.198 160.522 156.227 160.337 156.596C160.173 156.919 159.981 157.227 159.763 157.517C159.612 157.716 159.606 157.847 159.763 158.044C160.243 158.633 160.729 159.222 161.161 159.844C161.741 160.647 162.123 161.569 162.279 162.539C162.476 163.892 162.004 164.961 160.838 165.723C159.92 166.306 158.859 166.637 157.766 166.682C157.603 166.692 157.444 166.725 157.284 166.747H157.024C156.875 166.724 156.727 166.692 156.576 166.681C155.416 166.589 154.327 166.281 153.363 165.632C152.102 164.781 151.786 163.252 152.684 162.082C153.029 161.635 153.528 161.29 153.991 160.94C154.714 160.427 155.334 159.789 155.821 159.056C155.971 158.82 155.927 158.692 155.657 158.569C155.304 158.407 154.967 158.213 154.651 157.99C154.447 157.847 154.314 157.835 154.112 157.99C153.509 158.46 152.906 158.933 152.268 159.355C151.446 159.921 150.501 160.295 149.508 160.447C148.181 160.634 147.106 160.218 146.32 159.146C145.795 158.411 145.457 157.563 145.336 156.674C145.276 156.286 145.244 155.895 145.206 155.506V155.314C145.228 155.169 145.261 155.023 145.274 154.876C145.375 153.746 145.68 152.68 146.347 151.737C147.212 150.516 148.749 150.202 149.949 151.059C150.411 151.389 150.767 151.874 151.118 152.327C151.676 153.031 152.286 153.671 153.065 154.14C153.308 154.286 153.438 154.243 153.564 153.979C153.73 153.635 153.928 153.306 154.157 152.998C154.304 152.797 154.316 152.668 154.157 152.47C153.677 151.882 153.193 151.292 152.76 150.67C152.18 149.867 151.797 148.945 151.642 147.974C151.442 146.607 151.927 145.534 153.11 144.772C154.022 144.201 155.073 143.877 156.156 143.831C156.308 143.825 156.463 143.797 156.624 143.774ZM158.442 155.254C158.441 154.966 158.352 154.684 158.188 154.446C158.023 154.207 157.79 154.02 157.517 153.911C157.245 153.801 156.945 153.772 156.656 153.829C156.367 153.885 156.101 154.023 155.892 154.227C155.684 154.43 155.541 154.689 155.483 154.971C155.424 155.254 155.453 155.546 155.565 155.813C155.676 156.079 155.866 156.308 156.111 156.469C156.355 156.63 156.642 156.717 156.937 156.719C157.334 156.714 157.713 156.558 157.995 156.284C158.276 156.011 158.437 155.641 158.445 155.254H158.442Z" fill="black"/>
</g>
<defs>
<clipPath id="clip0_115_1684">
<rect width="180" height="174" fill="white" transform="translate(0 0.665039)"/>
</clipPath>
</defs>
</svg>
