<svg id="Шар_1" data-name="Шар 1" xmlns="http://www.w3.org/2000/svg" viewBox="0 0 1386.3 1372.25"><defs><style>.cls-1{fill:#00bfff;}</style></defs><path d="M1516.21,1730.31H1369.74V705h146.47Z" transform="translate(-710.17 -704.97)"/><path d="M1724.25,2067.82h-40.86V1781.76h40.86Z" transform="translate(-710.17 -704.97)"/><path d="M1850.39,1427.1c46.87-19,90.82-45.42,127.44-82,71.77-71.77,109.86-165.52,109.86-266.59,0-98.14-38.09-194.8-109.86-263.66C1904.59,746,1813.78,705,1712.71,705h-128.9v153.8h128.9c121.57,0,222.64,96.67,222.64,219.71,0,121.59-101.07,221.18-222.64,221.18h-128.9v153.8h90.81l222.64,276.85h199.21Z" transform="translate(-710.17 -704.97)"/><path d="M912.57,1940.73H729.91v-159H954.66v41.68H771.59V1899H954.66v168.78H729.91v-41.69H912.57Z" transform="translate(-710.17 -704.97)"/><path d="M1093.58,1823.85v244h-41.69v-244H977.52v-42.09H1168v42.09Z" transform="translate(-710.17 -704.97)"/><path d="M1387.37,1781.76v286.06h-188V1781.76h41.68v244h104.21v-244Z" transform="translate(-710.17 -704.97)"/><path d="M1641.52,1924.79a141.06,141.06,0,0,1-11.85,56.39,147.75,147.75,0,0,1-32.69,45.36c-28.61,26.56-66.2,41.28-106.25,41.28h-67.84V1781.76h67.84c40,0,77.64,14.71,106.25,41.28a137,137,0,0,1,44.54,101.75Zm-42.91,0c0-55.58-48.22-100.12-107.88-100.12H1465v200.24h25.75C1550.39,2024.91,1598.61,1980,1598.61,1924.79Z" transform="translate(-710.17 -704.97)"/><path d="M1919,2077.21c-84.58,0-152.83-68.65-152.83-152.83a152.83,152.83,0,1,1,305.66,0C2071.78,2008.56,2003.13,2077.21,1919,2077.21Zm-77.64-75.59a109.51,109.51,0,0,0,155.28,0c20.85-20.44,31.88-48.23,31.88-77.24,0-29.42-11-57.21-31.88-77.64a109.66,109.66,0,1,0-155.28,154.88Z" transform="translate(-710.17 -704.97)"/><polygon class="cls-1" points="0 1025.34 591.98 1025.34 591.98 878.2 254.86 878.2 423.61 585.91 591.98 585.91 591.98 439.43 508.18 439.43 591.98 294.29 591.98 0 0 1025.34"/><path d="M1916.44,1833.6h2c1.15.18,2.3.43,3.46.52,8.93.72,17.32,3.15,24.74,8.28,11,7.59,12.24,21.47,2.79,30.81a71,71,0,0,1-7.82,6.29,52.6,52.6,0,0,0-13.63,14.27c-1.62,2.58-1.35,3,1.25,4.32a53.64,53.64,0,0,1,7.5,4.51c1.58,1.15,2.61,1.2,4.16,0,4.57-3.66,9.15-7.34,14-10.63a50.66,50.66,0,0,1,21.48-8.74c10.54-1.49,19,2,25,10.88,4.88,7.21,7.11,15.28,7.68,23.88.08,1.24.34,2.47.52,3.71v2c-.18,1.15-.43,2.3-.53,3.46-.78,8.91-3.13,17.32-8.27,24.75-6.65,9.63-18.51,12.11-27.75,5.35-3.55-2.6-6.28-6.44-9-10-4.14-5.34-8.61-10.26-14.37-13.89-2.84-1.79-3.19-1.56-4.62,1.35a49.36,49.36,0,0,1-4.42,7.26c-1.16,1.57-1.21,2.6,0,4.16,3.7,4.64,7.44,9.29,10.77,14.19a50.49,50.49,0,0,1,8.61,21.26c1.52,10.67-2.12,19.1-11.1,25.11a47,47,0,0,1-23.66,7.56c-1.25.08-2.48.34-3.71.51h-2c-1.15-.18-2.29-.43-3.45-.52-8.94-.72-17.32-3.15-24.75-8.27-9.71-6.71-12.14-18.77-5.23-28,2.66-3.52,6.5-6.24,10.07-9a56.12,56.12,0,0,0,14.09-14.86c1.16-1.86.82-2.87-1.26-3.84a48.66,48.66,0,0,1-7.75-4.57c-1.57-1.13-2.59-1.22-4.15,0-4.64,3.71-9.29,7.44-14.2,10.77a50.57,50.57,0,0,1-21.26,8.61c-10.22,1.47-18.5-1.81-24.55-10.26a44.3,44.3,0,0,1-7.58-19.5c-.46-3.06-.71-6.14-1-9.21v-1.51c.17-1.15.42-2.3.52-3.46.78-8.91,3.13-17.32,8.27-24.75,6.66-9.63,18.5-12.11,27.74-5.35,3.56,2.6,6.3,6.43,9,10,4.3,5.55,9,10.6,15,14.3,1.87,1.15,2.87.81,3.84-1.27a47.83,47.83,0,0,1,4.57-7.74c1.13-1.58,1.22-2.6,0-4.16-3.7-4.64-7.43-9.29-10.76-14.2a50.31,50.31,0,0,1-8.61-21.26c-1.54-10.78,2.19-19.24,11.3-25.25a47.23,47.23,0,0,1,23.46-7.42C1914,1834,1915.2,1833.78,1916.44,1833.6Zm14,90.53a11.51,11.51,0,1,0-11.59,11.56A11.78,11.78,0,0,0,1930.46,1924.13Z" transform="translate(-710.17 -704.97)"/></svg>