<?xml version="1.0" encoding="iso-8859-1"?>
<!-- Generator: Adobe Illustrator 21.1.0, SVG Export Plug-In . SVG Version: 6.00 Build 0)  -->
<svg version="1.1" id="Layer_1" xmlns="http://www.w3.org/2000/svg" xmlns:xlink="http://www.w3.org/1999/xlink" x="0px" y="0px"
	 width="340" height="182" viewBox="0 0 200 107.365" style="enable-background:new 0 0 200 107.365;" xml:space="preserve">
<g>
	<g>
		<g>
			<path style="fill:#BD1B21;" d="M22.154,32.139v35.105c0,2.432-0.579,4.271-1.736,5.517c-1.156,1.246-2.624,1.869-4.404,1.869
				s-3.226-0.638-4.338-1.913c-1.113-1.275-1.669-3.1-1.669-5.472V32.495c0-2.403,0.556-4.211,1.669-5.428
				c1.112-1.216,2.558-1.824,4.338-1.824s3.248,0.609,4.404,1.824C21.575,28.284,22.154,29.974,22.154,32.139z"/>
			<path style="fill:#BD1B21;" d="M67.98,67.688v-1.201c-1.632,1.868-3.241,3.389-4.827,4.56c-1.587,1.172-3.308,2.063-5.162,2.67
				c-1.854,0.608-3.878,0.913-6.073,0.913c-2.907,0-5.599-0.616-8.075-1.847c-2.478-1.231-4.62-2.988-6.43-5.272
				c-1.809-2.284-3.181-4.968-4.116-8.053c-0.934-3.085-1.401-6.421-1.401-10.01c0-7.593,1.854-13.511,5.561-17.752
				c3.708-4.242,8.587-6.363,14.638-6.363c3.5,0,6.451,0.601,8.854,1.802c2.402,1.201,4.745,3.047,7.029,5.539v-17.93
				c0-2.492,0.497-4.375,1.49-5.65c0.994-1.275,2.409-1.913,4.249-1.913c1.839,0,3.255,0.586,4.25,1.757
				c0.993,1.172,1.49,2.9,1.49,5.184v53.568c0,2.314-0.534,4.049-1.602,5.206c-1.067,1.157-2.447,1.736-4.138,1.736
				c-1.661,0-3.033-0.601-4.116-1.802C68.522,71.626,67.98,69.913,67.98,67.688z M44.088,49.847c0,3.293,0.512,6.095,1.535,8.41
				c1.024,2.313,2.425,4.056,4.204,5.227c1.78,1.172,3.723,1.758,5.829,1.758c2.136,0,4.085-0.556,5.85-1.669
				c1.765-1.112,3.174-2.817,4.227-5.116c1.052-2.298,1.579-5.168,1.579-8.61c0-3.232-0.527-6.013-1.579-8.342
				c-1.053-2.328-2.478-4.108-4.272-5.339c-1.794-1.23-3.759-1.846-5.895-1.846c-2.224,0-4.212,0.63-5.962,1.89
				c-1.751,1.261-3.108,3.07-4.071,5.428C44.57,43.997,44.088,46.733,44.088,49.847z"/>
			<path style="fill:#BD1B21;" d="M125.554,52.917h-23.759c0.029,2.758,0.586,5.191,1.669,7.297c1.082,2.106,2.52,3.692,4.315,4.76
				c1.794,1.068,3.774,1.602,5.94,1.602c1.452,0,2.781-0.171,3.981-0.512c1.201-0.34,2.366-0.874,3.493-1.601
				c1.128-0.727,2.165-1.505,3.115-2.336c0.949-0.83,2.18-1.958,3.692-3.381c0.623-0.533,1.513-0.801,2.67-0.801
				c1.246,0,2.254,0.341,3.026,1.024c0.77,0.683,1.157,1.646,1.157,2.892c0,1.098-0.431,2.38-1.29,3.849
				c-0.861,1.468-2.159,2.877-3.893,4.227c-1.736,1.35-3.916,2.469-6.541,3.359c-2.625,0.89-5.643,1.335-9.054,1.335
				c-7.802,0-13.867-2.225-18.198-6.674c-4.331-4.45-6.495-10.485-6.495-18.109c0-3.588,0.534-6.918,1.601-9.988
				c1.068-3.07,2.625-5.702,4.672-7.898c2.047-2.195,4.568-3.877,7.564-5.05c2.996-1.171,6.318-1.758,9.967-1.758
				c4.746,0,8.816,1.001,12.213,3.004c3.396,2.001,5.939,4.59,7.63,7.763c1.69,3.174,2.536,6.407,2.536,9.699
				c0,3.055-0.875,5.035-2.625,5.94C131.189,52.465,128.727,52.917,125.554,52.917z M101.795,46.021h22.023
				c-0.297-4.153-1.417-7.26-3.359-9.321c-1.943-2.061-4.501-3.092-7.675-3.092c-3.025,0-5.51,1.045-7.452,3.136
				C103.389,38.835,102.21,41.928,101.795,46.021z"/>
			<path style="fill:#BD1B21;" d="M176.497,67.778c-2.936,2.284-5.776,3.997-8.52,5.138c-2.744,1.142-5.822,1.713-9.233,1.713
				c-3.114,0-5.85-0.616-8.209-1.847c-2.358-1.231-4.175-2.899-5.45-5.005c-1.275-2.106-1.913-4.39-1.913-6.852
				c0-3.322,1.053-6.155,3.159-8.498c2.105-2.343,4.998-3.916,8.676-4.716c0.77-0.178,2.684-0.578,5.739-1.201
				c3.054-0.622,5.672-1.193,7.853-1.713c2.18-0.519,4.545-1.149,7.096-1.891c-0.148-3.204-0.794-5.553-1.935-7.052
				c-1.142-1.498-3.508-2.247-7.096-2.247c-3.086,0-5.406,0.43-6.963,1.289c-1.558,0.861-2.893,2.151-4.004,3.871
				c-1.113,1.72-1.899,2.855-2.359,3.404c-0.46,0.549-1.446,0.823-2.958,0.823c-1.365,0-2.543-0.437-3.537-1.313
				c-0.994-0.874-1.49-1.994-1.49-3.359c0-2.136,0.756-4.212,2.269-6.229c1.512-2.016,3.871-3.677,7.074-4.983
				c3.204-1.305,7.193-1.958,11.969-1.958c5.339,0,9.536,0.631,12.591,1.891c3.055,1.261,5.213,3.255,6.474,5.984
				c1.26,2.729,1.89,6.348,1.89,10.856c0,2.847-0.007,5.265-0.022,7.252c-0.015,1.988-0.037,4.198-0.067,6.63
				c0,2.284,0.379,4.665,1.135,7.141c0.756,2.478,1.135,4.071,1.135,4.783c0,1.246-0.587,2.381-1.758,3.404
				c-1.172,1.024-2.499,1.536-3.982,1.536c-1.246,0-2.477-0.587-3.693-1.758C179.151,71.701,177.861,70.002,176.497,67.778z
				 M175.696,50.203c-1.78,0.652-4.368,1.342-7.763,2.069c-3.397,0.727-5.747,1.261-7.053,1.601
				c-1.305,0.341-2.551,1.009-3.737,2.002c-1.187,0.994-1.78,2.381-1.78,4.16c0,1.84,0.697,3.404,2.091,4.694
				c1.394,1.29,3.218,1.936,5.473,1.936c2.403,0,4.619-0.526,6.652-1.579c2.032-1.053,3.522-2.41,4.472-4.071
				c1.097-1.839,1.646-4.865,1.646-9.077V50.203z"/>
		</g>
		<path style="fill-rule:evenodd;clip-rule:evenodd;fill:#BD1B21;" d="M12.327,5.513h7.507c1.202,0,2.184,0.983,2.184,2.184v7.098
			c0,1.201-0.983,2.184-2.184,2.184h-7.507c-1.202,0-2.184-0.983-2.184-2.184V7.697C10.143,6.496,11.126,5.513,12.327,5.513z"/>
	</g>
</g>
<g>
	<path style="fill:#BD1B21;" d="M10.585,97.282c0-2.696,2.046-4.092,5.102-4.092c1.204,0,2.384,0.241,3.13,0.506v-0.216
		c0-1.348-0.842-2.118-2.599-2.118c-1.373,0-2.431,0.265-3.587,0.722l-0.939-3.225c1.468-0.601,3.034-1.011,5.271-1.011
		c2.336,0,3.925,0.554,4.96,1.589c0.986,0.963,1.395,2.311,1.395,4.14v7.487h-4.525v-1.348c-0.891,0.986-2.118,1.637-3.828,1.637
		C12.487,101.351,10.585,99.93,10.585,97.282z M18.866,96.344v-0.603c-0.457-0.193-1.107-0.337-1.782-0.337
		c-1.323,0-2.093,0.65-2.093,1.661c0,0.891,0.673,1.42,1.613,1.42C17.927,98.486,18.866,97.644,18.866,96.344z"/>
	<path style="fill:#BD1B21;" d="M26.139,83.489h4.766v3.371h-4.766V83.489z M26.236,88.039h4.573v13.023h-4.573V88.039z"/>
	<path style="fill:#BD1B21;" d="M33.844,88.039h4.573v2.624c0.747-1.782,1.951-2.937,4.116-2.84v4.814h-0.385
		c-2.383,0-3.731,1.372-3.731,4.381v4.044h-4.573V88.039z"/>
	<path style="fill:#BD1B21;" d="M43.86,94.563c0-3.684,2.865-6.788,6.981-6.788c2.671,0,4.453,1.155,5.56,2.912l-3.056,2.215
		c-0.626-0.867-1.373-1.276-2.359-1.276c-1.661,0-2.672,1.3-2.672,2.937c0,1.685,1.06,2.961,2.6,2.961
		c1.083,0,1.733-0.529,2.455-1.373l3.105,2.239c-1.203,1.782-2.936,2.985-5.801,2.985C46.748,101.375,43.86,98.294,43.86,94.563z"/>
	<path style="fill:#BD1B21;" d="M57.68,94.563c0-3.707,3.033-6.812,7.221-6.812c4.164,0,7.173,3.056,7.173,6.812
		c0,3.707-3.033,6.812-7.221,6.812C60.689,101.375,57.68,98.317,57.68,94.563z M67.621,94.563c0-1.589-1.155-2.937-2.768-2.937
		c-1.661,0-2.721,1.324-2.721,2.937c0,1.588,1.155,2.937,2.768,2.937C66.562,97.5,67.621,96.175,67.621,94.563z"/>
	<path style="fill:#BD1B21;" d="M74.484,88.039h4.573v1.83c0.844-1.083,2.046-2.118,3.9-2.118c2.768,0,4.429,1.829,4.429,4.789
		v8.521h-4.573v-7.053c0-1.42-0.747-2.19-1.83-2.19c-1.107,0-1.926,0.77-1.926,2.19v7.053h-4.573V88.039z"/>
	<path style="fill:#BD1B21;" d="M89.751,94.563c0-4.236,2.647-6.812,5.729-6.812c1.974,0,3.13,0.891,3.995,1.877v-6.139h4.573
		v17.572h-4.573v-1.733c-0.891,1.083-2.021,2.023-3.972,2.023C92.422,101.351,89.751,98.774,89.751,94.563z M99.547,94.514
		c0-1.71-1.179-2.937-2.647-2.937c-1.468,0-2.672,1.204-2.672,2.985c0,1.733,1.204,2.961,2.672,2.961
		C98.368,97.523,99.547,96.296,99.547,94.514z"/>
	<path style="fill:#BD1B21;" d="M106.989,83.489h4.766v3.371h-4.766V83.489z M107.085,88.039h4.573v13.023h-4.573V88.039z"/>
	<path style="fill:#BD1B21;" d="M115.488,97.018v-5.295h-1.541v-3.684h1.541v-3.297h4.573v3.297h3.033v3.684h-3.033v4.404
		c0,0.914,0.409,1.3,1.251,1.3c0.603,0,1.18-0.168,1.733-0.432v3.587c-0.819,0.457-1.901,0.745-3.177,0.745
		C117.124,101.326,115.488,100.122,115.488,97.018z"/>
	<path style="fill:#BD1B21;" d="M125.552,83.489h4.766v3.371h-4.766V83.489z M125.649,88.039h4.573v13.023h-4.573V88.039z"/>
	<path style="fill:#BD1B21;" d="M132.727,94.563c0-3.707,3.033-6.812,7.221-6.812c4.164,0,7.173,3.056,7.173,6.812
		c0,3.707-3.033,6.812-7.221,6.812C135.736,101.375,132.727,98.317,132.727,94.563z M142.668,94.563
		c0-1.589-1.155-2.937-2.768-2.937c-1.661,0-2.721,1.324-2.721,2.937c0,1.588,1.155,2.937,2.768,2.937
		C141.608,97.5,142.668,96.175,142.668,94.563z"/>
	<path style="fill:#BD1B21;" d="M149.532,88.039h4.573v1.83c0.842-1.083,2.046-2.118,3.9-2.118c2.768,0,4.429,1.829,4.429,4.789
		v8.521h-4.573v-7.053c0-1.42-0.747-2.19-1.83-2.19c-1.107,0-1.926,0.77-1.926,2.19v7.053h-4.573V88.039z"/>
	<path style="fill:#BD1B21;" d="M164.749,94.563c0-3.804,2.72-6.812,6.571-6.812c4.501,0,6.572,3.297,6.572,7.125
		c0,0.288,0,0.625-0.025,0.938h-8.714c0.362,1.42,1.396,2.143,2.816,2.143c1.083,0,1.951-0.41,2.889-1.324l2.528,2.095
		c-1.252,1.588-3.057,2.647-5.657,2.647C167.637,101.375,164.749,98.655,164.749,94.563z M173.607,93.479
		c-0.169-1.445-1.011-2.359-2.262-2.359c-1.204,0-2.023,0.939-2.264,2.359H173.607z"/>
	<path style="fill:#BD1B21;" d="M180.327,88.039h4.573v2.624c0.747-1.782,1.951-2.937,4.116-2.84v4.814h-0.385
		c-2.383,0-3.731,1.372-3.731,4.381v4.044h-4.573V88.039z"/>
</g>
</svg>
