<?xml version="1.0" encoding="utf-8"?>
<!-- Generator: Adobe Illustrator 25.4.1, SVG Export Plug-In . SVG Version: 6.00 Build 0)  -->
<svg version="1.1" id="Слой_1" xmlns="http://www.w3.org/2000/svg" xmlns:xlink="http://www.w3.org/1999/xlink" x="0px" y="0px"
	 viewBox="0 0 595.3 841.9" style="enable-background:new 0 0 595.3 841.9;" xml:space="preserve">
<style type="text/css">
	.st0{fill:#FFFFFF;}
	.st1{fill:#FDFEFE;}
	.st2{fill:#45BCED;}
	.st3{fill:#4ABFEE;}
	.st4{fill:#51C1EF;}
	.st5{fill:#57C4F0;}
	.st6{fill:#60C6F0;}
	.st7{fill:#69C8F0;}
	.st8{fill:#70CAF1;}
	.st9{fill:#79CDF1;}
	.st10{fill:#81CFF1;}
	.st11{fill:#8BD2F1;}
	.st12{fill:#95D5F2;}
	.st13{fill:#9FD8F3;}
	.st14{fill:#A9DCF3;}
	.st15{fill:#B3DFF4;}
</style>
<g>
	<g>
		<path class="st0" d="M1228.1,321.3c0,8.2,0,16.4,0,24.5c0,1.4-0.3,1.9-1.7,1.6c-0.3,0-0.5,0-0.8,0c-191.6,0-383.2,0-574.8,0.1
			c-2,0-2.5-0.5-2.5-2.5c0.1-105.7,0.1-211.5,0-317.2c0-2,0.5-2.5,2.5-2.5c65.5,0.1,130.9,0.1,196.4,0.1
			c6.3,11.8,12.6,23.7,18.9,35.5c0.5,0.9,1.2,1,2,1c11.4,0.5,22.8,1,34.2,1.7c4.3,0.2,8.5,0.4,12.8,0.6c13.9,0.6,27.9,1.4,41.8,2.1
			c5.4,0.3,10.8,0.8,16.3,0.8c2.4,0,2.8,1,2.8,3.1c-0.1,12.9,0,25.8-0.1,38.7c0,1.4,0.1,2.5,1.6,3.4c29.9,17.5,59.7,35.1,89.5,52.7
			c1.3,0.8,2.5,0.7,3.9,0.3c8.6-2.5,17.2-4.9,25.8-7.5c2.2-0.7,3.6-0.4,5.2,1.3c13.9,14,27.8,27.9,41.8,41.8
			c1.4,1.3,1.9,2.7,1.7,4.5c-0.3,3.2-0.4,6.3-0.6,9.5c-0.4,6.1-0.8,12.1-1.2,18.2c-0.7,10.3-1.4,20.6-2.1,30.9
			c-0.1,1.7,0.4,2.7,1.9,3.7c22.5,14.3,44.9,28.7,67.4,43C1216.5,314.1,1222.1,318,1228.1,321.3z"/>
		<path class="st1" d="M870.1,25.3c4.4,0,8.7,0,13.1,0c3.3,6.7,7.5,12.8,11.2,19.3c0.6,1,1.5,0.9,2.4,0.9c3.2,0.2,6.3,0.4,9.5,0.6
			c12,0.9,24,1.7,36,2.6c5.3,0.4,10.7,0.6,16,1.2c11.3,1.3,22.6,2.7,33.9,4.2c6.2,0.8,5.7-0.8,5.9,6.5c0.3,10.6,0,21.2,0.7,31.8
			c0.2,2.8,1,4.7,3.8,6.1c9.8,4.9,19.4,10.2,29.1,15.4c10.7,5.8,21.7,11,32,17.4c7.8,4.8,15.6,9.7,23.3,14.6
			c1.4,0.9,2.7,1.3,4.5,0.9c8-1.9,16.1-3.5,24.1-5.3c2-0.5,3.5-0.1,5.1,1.4c13.7,13.6,26.6,28.1,41,41c1.3,1.1,1.6,2.4,1.6,4.1
			c0,17.5,0.1,35.1,0,52.6c0,2.6,0.9,3.9,3,5.1c9.1,5.4,18.2,10.9,27,16.8c11.6,7.6,23.2,15.1,34.9,22.7c0,4.2,0,8.4,0,12.5
			c-0.2-0.1-0.3-0.1-0.5-0.2c-22.9-14.7-45.5-29.8-68.8-44c-1.4-0.8-1.7-1.9-1.7-3.4c0.2-5.3,0.2-10.5,0.5-15.8
			c0.4-8.5,0.5-17,0.7-25.6c0.1-1.9,0.2-3.8,0.4-5.7c1-10.5,0.8-11.1-7.1-18.2c-0.5-0.4-0.9-0.9-1.4-1.3
			c-12.6-12.7-25.2-25.4-37.7-38.2c-1.5-1.5-2.7-1.9-4.7-1.3c-8.7,2.3-17.4,4.4-26,6.7c-1.8,0.5-3.1,0.1-4.6-0.8
			c-9.3-5.7-18.5-11.5-28-16.8c-18.4-10.5-36.8-20.7-55.3-31c-0.9-0.5-2-0.9-2-2.3c0-1.5-0.3-3.1-0.3-4.6
			c-0.1-11.9-0.2-23.8-0.1-35.7c0-2.4-0.5-3.2-3.1-3.4c-7.4-0.4-14.8-1.1-22.2-1.7c-8.7-0.7-17.3-1.4-26-2.1
			c-6.9-0.5-13.7-0.8-20.6-1.2c-11-0.7-22-1.5-33.1-2c-2.3-0.1-3.4-0.9-4.4-2.7C878.2,39.5,874.1,32.4,870.1,25.3z"/>
		<path class="st1" d="M888.6,25.3c4.4,0,8.7,0,13.1,0c1.8,3.9,4.5,7.2,6.6,10.9c0.5,1,1.3,1,2.3,1.1c4.8,0.4,9.6,0.8,14.3,1.2
			c10.3,0.9,20.6,1.7,30.8,2.6c4.8,0.4,9.6,0.6,14.3,1.3c11.8,1.8,23.5,3.9,35.4,5.6c2.9,0.4,3.7,1.5,3.6,4.3
			c-0.1,11.8-0.4,23.6,1.5,35.3c0.3,1.6,0.9,2.3,2.2,3c9.2,4.6,18.4,9.1,27.5,13.7c11.1,5.7,22.7,10.7,33.3,17.2
			c8,4.9,15.9,10.2,23.8,15.3c1,0.6,1.8,1.2,3.2,1c8.3-1.6,16.5-3,24.8-4.5c1.7-0.3,2.9,0,4.1,1.3c2.6,2.9,5.3,5.7,8.1,8.5
			c11,10.8,21,22.7,32.9,32.6c0.9,0.7,1.4,1.5,1.5,2.8c0.7,17.3,1.5,34.6,2.1,51.9c0.1,1.9,0.6,3,2.2,3.9
			c17.1,9.5,33.1,20.6,49.3,31.4c0.7,0.5,1.4,1.2,2.4,1.1c0,4.4,0,8.7,0,13.1c-19.4-12.5-38.4-25.7-58.4-37.4
			c-1.2-0.7-1.6-1.4-1.6-2.8c-0.1-7.5-0.3-15-0.3-22.6c-0.1-10.5-0.1-21.1-0.1-31.6c0-1.4-0.2-2.6-1.4-3.6
			c-4.2-3.8-8.4-7.5-12.3-11.5c-10.6-10.7-21-21.6-31.5-32.3c-1.1-1.2-2.1-2.4-4.1-1.9c-8.2,1.9-16.5,3.5-24.6,5.5
			c-2.7,0.7-4.8,0.2-7-1.3c-14.4-9.3-29-18.2-44.3-26c-12.4-6.3-24.6-13.1-37-19.6c-1-0.5-1.7-1.1-1.8-2.4c-0.5-6-1-12.1-0.9-18.2
			c0-7.1-0.1-14.2-0.1-21.2c0-1.7-0.4-2.3-2.2-2.5c-11.1-1.2-22.3-2.4-33.4-3.9c-14.6-2-29.4-2.5-44.1-3.7
			c-7.9-0.6-15.9-1.1-23.8-1.7c-0.8-0.1-1.4-0.3-1.8-1C894.3,35.2,891.1,30.4,888.6,25.3z"/>
		<path class="st1" d="M907.2,25.3c4.5,0,9.1,0,13.6,0c0.9,2.6,2.7,4,5.6,4.1c3.6,0.1,7.2,0.6,10.8,0.9c8.7,0.8,17.5,1.7,26.2,2.6
			c6.3,0.6,12.7,0.7,18.9,1.9c11.7,2.1,23.4,4.9,35.1,7.1c2.3,0.4,2.5,1.4,2.6,3.4c0.4,11.6-0.3,23.2,2.1,34.7
			c0.3,1.7,0.9,2.7,2.6,3.4c11.1,5.1,22.2,10.4,33.2,15.6c12.4,5.9,25.2,11.2,36.3,19.6c4.4,3.3,9.2,6.2,13.8,9.3
			c1,0.7,2,1.1,3.3,0.9c5.8-0.9,11.7-1.4,17.4-2.6c6-1.4,10.9-0.7,14.3,5c0.1,0.2,0.4,0.4,0.6,0.6c12,11.9,22.8,25.2,36.1,35.8
			c0.9,0.8,1,1.6,1.1,2.6c0.6,6.8,1.1,13.5,1.7,20.3c0.9,9.7,1.8,19.3,2.6,29c0.1,1.8,0.7,2.8,2.2,3.6c12.5,6.9,24.6,14.4,36.2,22.6
			c1.4,1,2.7,2.4,4.6,2.7c0,4.4,0,8.7,0,13.1c-0.2-0.1-0.5-0.2-0.7-0.3c-15.5-10.2-30.8-20.9-47-29.9c-1.4-0.8-1.7-2-1.7-3.5
			c-0.4-8.4-0.7-16.8-1.1-25.3c-0.3-6.7-0.7-13.4-0.6-20.1c0.1-5.5-1.6-9.6-6.2-12.9c-3-2.1-5.7-4.8-8.3-7.4
			c-10.4-10.6-20.7-21.4-31-32.1c-1.3-1.3-2.6-1.8-4.3-1.5c-7.6,1.4-15.3,2.7-22.9,4.2c-2.6,0.5-4.7,0.1-7-1.4
			c-10.6-6.8-20.8-14.3-32.1-19.8c-16-7.8-31.8-15.9-47.7-23.9c-1-0.5-2.2-0.7-2.3-2.3c-0.4-4.5-1.1-9-1.1-13.5
			c0-8.4-0.3-16.9-0.5-25.3c0-1.3-0.4-1.9-1.8-2c-2.7-0.3-5.4-0.9-8-1.3c-11-1.7-21.9-3.6-32.9-5.2c-6.7-0.9-13.5-1.2-20.3-1.8
			c-10.1-0.9-20.2-1.9-30.3-2.5C911.7,33,911.2,32.9,907.2,25.3z"/>
		<path class="st2" d="M1228.1,321.3c-6-3.2-11.6-7.1-17.3-10.8c-22.5-14.3-44.9-28.7-67.4-43c-1.5-1-2.1-2-1.9-3.7
			c0.8-10.3,1.4-20.6,2.1-30.9c0.4-6.1,0.8-12.1,1.2-18.2c0.2-3.2,0.3-6.3,0.6-9.5c0.2-1.9-0.4-3.2-1.7-4.5
			c-14-13.9-27.9-27.8-41.8-41.8c-1.6-1.7-3.1-1.9-5.2-1.3c-8.6,2.6-17.2,5-25.8,7.5c-1.4,0.4-2.5,0.5-3.9-0.3
			c-29.8-17.6-59.7-35.2-89.5-52.7c-1.5-0.9-1.6-2-1.6-3.4c0-12.9,0-25.8,0.1-38.7c0-2.1-0.4-3-2.8-3.1c-5.4-0.1-10.8-0.6-16.3-0.8
			c-13.9-0.7-27.9-1.5-41.8-2.1c-4.3-0.2-8.5-0.3-12.8-0.6c-11.4-0.7-22.8-1.1-34.2-1.7c-0.8,0-1.5-0.1-2-1
			c-6.3-11.9-12.6-23.7-18.9-35.5c1.8,0,3.6,0,5.4,0c0.1,0.3,0.1,0.7,0.3,1c5.3,9.8,10.5,19.6,15.7,29.5c0.7,1.4,1.8,1.6,3.1,1.6
			c10.9,0.5,21.9,1,32.8,1.6c10.9,0.5,21.9,1.1,32.8,1.6c13.4,0.6,26.8,1.3,40.2,1.7c2.2,0.1,2.7,0.7,2.7,2.8
			c-0.1,13.5,0,27.1-0.1,40.6c0,1.9,0.6,2.9,2.2,3.9c27.1,15.8,54.1,31.6,81,47.8c4.1,2.5,7.6,3.1,12.1,1.5
			c6.4-2.4,13.2-3.5,19.6-6.1l0,0c0.8,0,1.6,0.2,2.2-0.6c0,0,0,0,0,0c3.4-1.5,5.5,0.4,7.5,2.8c0.3,0.4,0.8,0.7,1.2,1
			c0.2,0.2,0.4,0.4,0.5,0.5c1.3,1.6,2.7,3.1,4.4,4.4l0,0c1.1,1.5,2.4,2.7,3.8,3.8c0.5,0.5,1,0.9,1.4,1.4c0.8,1.2,1.8,2.1,2.9,2.9
			l0,0c1.3,1.6,2.7,3.1,4.4,4.4c0.3,0.3,0.6,0.6,0.9,0.9c1,1.4,2.1,2.5,3.5,3.5c0.2,0.2,0.4,0.4,0.5,0.5c1,1.3,2.1,2.5,3.5,3.5
			c0.3,0.3,0.6,0.6,0.9,0.9c1.1,1.4,2.2,2.7,3.7,3.6c0.2,0.3,0.4,0.5,0.6,0.8c1.1,1.4,2.4,2.7,3.8,3.8l0,0c1.2,1.5,2.5,2.9,4,4
			c0.3,0.3,0.6,0.6,0.9,0.9c0.5,0.6,1,1.3,1.6,1.8c2.5,1.8,3.1,4.1,2.8,7.1c-0.5,5.9-0.7,11.9-1.2,17.9c-0.5,5.4-0.8,10.8-1.1,16.3
			c-0.4,7.7-1,15.4-1.6,23c-0.1,1.2,0.3,2,1.4,2.7c4.9,3,9.7,6,14.5,9.1c0.7,0.4,1.4,0.9,2.1,1.3c3.8,2.5,7.7,4.9,11.5,7.4
			c0.7,0.4,1.4,0.8,2.1,1.3c3.8,2.5,7.7,5,11.5,7.4c1.1,0.7,2.1,1.3,3.2,2c5.8,4.1,11.8,7.9,18,11.5c0.4,0.5,1,0.9,1.6,1
			c3.5,2.5,7.1,4.9,10.9,7c0.8,0.7,1.7,1.4,2.7,1.7c0.7,0.5,1.5,1,2.2,1.5C1228.1,317.6,1228.1,319.4,1228.1,321.3z"/>
		<path class="st1" d="M1228.1,229.7c0,4.4,0,8.7,0,13.1c-0.3-0.1-0.5-0.1-0.8-0.3c-11.7-8.1-23.7-15.8-36.2-22.6
			c-1.1-0.6-1.6-1.4-1.7-2.6c-0.6-6.8-1.1-13.5-1.7-20.3c-0.8-9-1.6-18-2.2-27.1c-0.2-3.2-1.8-5.3-4.1-7.2c-3.2-2.5-6.3-5.2-9.1-8.1
			c-10.8-11-21.4-22.2-32.1-33.3c-0.6-0.7-1.3-1.2-2.3-1.1c-8.1,1.2-16.3,2.2-24.4,3.5c-1.9,0.3-3.3-0.1-4.8-1.1
			c-12.4-8-24.2-16.9-37.9-22.9c-14.1-6.2-27.9-13-41.9-19.6c-1-0.5-2.2-0.7-2.4-2.2c-0.7-4.8-1.4-9.6-1.6-14.6
			c-0.2-7.5,0.2-15.1-0.4-22.6c-0.1-1.7-0.6-2.3-2.2-2.6c-3.7-0.6-7.3-1.5-10.9-2.2c-9.5-1.9-18.9-4.4-28.4-5.6
			c-13.3-1.8-26.6-2.6-40-4c-2.3-0.2-4.7,0.1-6.9-1c14.7,0,29.4,0,44.1,0c0.7,0.7,1.7,0.4,2.6,0.5c5.2,0.8,10.5,0.8,15.6,2.1
			c10.1,2.7,20.2,5.2,30.2,7.7c1.2,0.3,2.4,0.4,2.4,2.3c0,5.4,0.4,10.9,0.4,16.3c0,6.6,0.8,13,2.6,19.3c0.3,1,0.6,1.8,1.7,2.2
			c14.2,6.2,28.4,12.4,42.5,18.7c5.4,2.4,11.1,4.2,16,7.5c7.9,5.2,15.6,10.6,23.3,16.1c1.8,1.3,3.5,1.6,5.6,1.4
			c6.7-0.7,13.3-1.3,20-2.1c2.7-0.3,4.5,0.6,6.4,2.5c12.9,13.1,24.4,27.6,39,39c0.8,0.6,1,1.3,1.2,2.3c2,14.4,4.1,28.8,5.9,43.3
			c0.5,4.2,1.6,7.3,5.9,9.2c5.1,2.3,9.8,5.5,14.7,8.2C1220.2,224.2,1223.7,227.6,1228.1,229.7z"/>
		<path class="st3" d="M870.1,25.3c4,7.1,8.1,14.2,12,21.3c1,1.8,2.2,2.6,4.4,2.7c11,0.5,22.1,1.3,33.1,2c6.9,0.4,13.8,0.7,20.6,1.2
			c8.7,0.6,17.3,1.4,26,2.1c7.4,0.6,14.8,1.3,22.2,1.7c2.6,0.1,3.1,1,3.1,3.4c-0.1,11.9,0.1,23.8,0.1,35.7c0,1.5,0.3,3.1,0.3,4.6
			c0,1.4,1.1,1.8,2,2.3c18.4,10.3,36.9,20.5,55.3,31c9.4,5.4,18.7,11.2,28,16.8c1.5,0.9,2.8,1.2,4.6,0.8c8.6-2.3,17.3-4.4,26-6.7
			c2-0.5,3.3-0.2,4.7,1.3c12.5,12.8,25.1,25.5,37.7,38.2c0.4,0.5,0.9,0.9,1.4,1.3c7.9,7.1,8.2,7.7,7.1,18.2
			c-0.2,1.9-0.4,3.8-0.4,5.7c-0.2,8.5-0.3,17.1-0.7,25.6c-0.3,5.3-0.3,10.5-0.5,15.8c0,1.5,0.3,2.5,1.7,3.4
			c23.2,14.2,45.8,29.3,68.8,44c0.1,0.1,0.3,0.1,0.5,0.2c0,1.8,0,3.6,0,5.5c-0.3,0-0.6,0-1-0.1c-3.6-2.9-7.6-5.2-11.6-7.6
			c-0.7-0.4-1.4-0.9-2.1-1.3c-3.4-2.5-6.9-4.7-10.5-6.8c-0.6-0.4-1.1-1.1-2-1.2c-11-7.5-22.1-14.7-33.4-21.6c-0.5-0.3-1-0.6-1.5-0.9
			c-3.7-2.7-7.6-4.9-11.5-7.3c-0.5-0.3-1-0.5-1.5-0.8c-0.9-0.9-0.7-2-0.7-3.1c0.3-9,0.7-17.9,1-26.9c0.3-9.4,0.3-18.9,0.8-28.3
			c0.2-2.9-0.5-4.7-2.8-6.1c-0.4-0.4-0.7-0.7-1.1-1.1c-1.3-1.3-2.6-2.6-3.9-3.9c-0.4-0.3-0.7-0.7-1.1-1c-0.9-1.3-2-2.4-3.3-3.3
			c-0.5-0.5-1-0.9-1.4-1.4c-0.5-0.9-1.2-1.5-2-2c-0.5-0.8-1.1-1.5-1.9-2c-1.1-1.4-2.3-2.8-3.8-3.9l0,0c-1.1-1.5-2.4-2.7-3.8-3.9
			c-0.2-0.2-0.3-0.3-0.5-0.5c-1.3-1.3-2.6-2.6-3.9-3.9c-0.2-0.2-0.3-0.3-0.5-0.5c-1.4-1.6-2.6-3.2-4.4-4.4l0,0
			c-0.8-1.3-2.1-2.4-3.3-3.4c-0.9-0.9-1.8-1.8-2.8-2.7c-0.6-0.8-1.2-1.6-2.2-2.1l0,0c-0.9-1.1-1.7-2.9-3.1-2.5
			c-3.7,0.9-7.7,1.1-11.1,3.2c0,0,0,0,0,0c-0.8-0.1-1.7-0.4-2.2,0.6c0,0,0,0,0,0c-4.7,0.2-9,2-13.4,3c-2.1,0.5-3.8,0.2-5.6-0.9
			c-16.3-10-32.7-19.9-49.5-29c-12.3-6.7-24.5-13.7-36.8-20.6c-1.4-0.8-2.7-1.5-2.6-3.6c0.2-8-0.7-15.9-0.5-23.9
			c0.1-4.9-0.1-9.8,0-14.7c0-1.8-0.6-2.3-2.3-2.4c-3.1-0.1-6.1-0.4-9.2-0.6c-10.4-0.9-20.7-1.8-31.1-2.6c-6.9-0.5-13.7-0.8-20.6-1.2
			c-13.5-0.8-26.9-1.8-40.4-2.6c-1.8-0.1-2.7-0.6-3.6-2.1c-4.9-8.8-9.9-17.5-14.9-26.3C866.5,25.3,868.3,25.3,870.1,25.3z"/>
		<path class="st3" d="M888.6,25.3c2.4,5.2,5.7,9.9,8.5,14.8c0.4,0.7,1,1,1.8,1c7.9,0.5,15.9,1,23.8,1.7c14.7,1.2,29.4,1.7,44.1,3.7
			c11.1,1.5,22.3,2.7,33.4,3.9c1.8,0.2,2.2,0.8,2.2,2.5c0,7.1,0.1,14.2,0.1,21.2c0,6.1,0.4,12.1,0.9,18.2c0.1,1.3,0.7,1.8,1.8,2.4
			c12.3,6.5,24.5,13.3,37,19.6c15.3,7.8,29.9,16.7,44.3,26c2.3,1.5,4.3,1.9,7,1.3c8.2-2,16.4-3.6,24.6-5.5c2.1-0.5,3,0.7,4.1,1.9
			c10.5,10.8,21,21.6,31.5,32.3c3.9,4,8.1,7.8,12.3,11.5c1.2,1,1.4,2.2,1.4,3.6c0,10.5,0,21.1,0.1,31.6c0.1,7.5,0.3,15,0.3,22.6
			c0,1.4,0.5,2.1,1.6,2.8c20,11.7,39,24.9,58.4,37.4c0,1.8,0,3.6,0,5.5c-11.6-7.6-23.3-15.1-34.9-22.7c-8.9-5.8-17.9-11.4-27-16.8
			c-2.1-1.2-3-2.6-3-5.1c0.1-17.5,0-35.1,0-52.6c0-1.7-0.4-2.9-1.6-4.1c-14.4-13-27.2-27.4-41-41c-1.6-1.6-3-1.9-5.1-1.4
			c-8,1.8-16.1,3.5-24.1,5.3c-1.8,0.4-3.1,0-4.5-0.9c-7.7-4.9-15.5-9.8-23.3-14.6c-10.3-6.4-21.3-11.6-32-17.4
			c-9.7-5.2-19.3-10.4-29.1-15.4c-2.8-1.4-3.6-3.3-3.8-6.1c-0.7-10.6-0.4-21.2-0.7-31.8c-0.2-7.3,0.4-5.7-5.9-6.5
			c-11.3-1.5-22.6-2.9-33.9-4.2c-5.3-0.6-10.6-0.8-16-1.2c-12-0.9-24-1.7-36-2.6c-3.2-0.2-6.3-0.4-9.5-0.6c-0.9-0.1-1.8,0.1-2.4-0.9
			c-3.7-6.4-7.9-12.6-11.2-19.3C885,25.3,886.8,25.3,888.6,25.3z"/>
		<path class="st1" d="M1228.1,211.2c0,4.4,0,8.7,0,13.1c-8-5.7-16.6-10.3-25.2-15.1c-1.3-0.7-2.4-1.4-2.6-3.2
			c-2-15.1-4-30.1-6-45.2c-0.3-2.4-1.2-4.3-3.3-5.9c-4-3.1-8-6.3-11.5-10c-9.5-10.1-19.1-20.1-28.5-30.3c-1.8-1.9-3.6-2.4-6-2.1
			c-6.9,0.8-13.9,1.4-20.8,2.1c-2.2,0.2-4-0.2-5.8-1.6c-2.6-2-5.3-3.9-8-5.6c-6.3-4-11.8-9.1-18.7-12.1
			c-17.2-7.6-34.5-15.2-51.7-22.8c-0.8-0.4-1.7-0.7-1.9-1.8c-0.6-2.9-1.6-5.8-1.7-8.8c-0.4-7.1-0.4-14.3-0.7-21.5
			c-0.1-2.6,1-5.8-0.6-7.7c-1.6-1.8-4.8-1.6-7.4-2.3c-6.6-1.9-13.3-3.1-19.8-5.4c6.4,0,12.7,0,19.1,0c4.2,1.8,8.8,2.8,13.1,4.3
			c1.4,0.5,2,1.2,2.1,2.7c0.2,6.9,0.6,13.8,0.5,20.7c-0.1,5,1.8,9.4,2.9,14c0.3,1.1,1.2,1.5,2.2,1.9c13.9,5.7,27.9,11.3,41.8,17.1
			c7,2.9,14.2,5.3,20.4,10.1c5.8,4.6,12,8.7,18.1,13c0.9,0.7,1.9,1.4,3.2,1.3c6.9-0.4,13.7-0.6,20.6-1c2.5-0.2,4.6,0,6.5,2.2
			c5.1,5.8,10.4,11.4,15.7,16.9c5.9,6.1,11,13.2,18.1,18c4.6,3.1,7.1,6.9,7.4,12.4c0,0.9,0.2,1.8,0.4,2.7c2.3,12,4.6,24,6.8,36
			c0.3,1.8,1.3,2.8,2.9,3.6C1215.8,204.4,1221.9,207.8,1228.1,211.2z"/>
		<path class="st4" d="M907.2,25.3c4,7.7,4.5,7.7,12.9,8.3c10.1,0.6,20.2,1.7,30.3,2.5c6.8,0.6,13.6,0.9,20.3,1.8
			c11,1.5,22,3.4,32.9,5.2c2.7,0.4,5.3,1,8,1.3c1.4,0.2,1.8,0.7,1.8,2c0.1,8.4,0.4,16.9,0.5,25.3c0,4.6,0.7,9,1.1,13.5
			c0.1,1.6,1.3,1.8,2.3,2.3c15.9,8,31.7,16,47.7,23.9c11.4,5.6,21.5,13.1,32.1,19.8c2.3,1.5,4.4,1.9,7,1.4
			c7.6-1.5,15.3-2.8,22.9-4.2c1.7-0.3,3,0.2,4.3,1.5c10.3,10.8,20.6,21.5,31,32.1c2.6,2.7,5.3,5.3,8.3,7.4c4.5,3.2,6.2,7.4,6.2,12.9
			c-0.1,6.7,0.4,13.4,0.6,20.1c0.3,8.4,0.7,16.8,1.1,25.3c0.1,1.4,0.3,2.7,1.7,3.5c16.3,9,31.5,19.7,47,29.9
			c0.2,0.1,0.5,0.2,0.7,0.3c0,1.8,0,3.6,0,5.5c-1,0.1-1.7-0.6-2.4-1.1c-16.2-10.8-32.3-21.9-49.3-31.4c-1.6-0.9-2.2-2-2.2-3.9
			c-0.6-17.3-1.4-34.6-2.1-51.9c0-1.2-0.6-2-1.5-2.8c-11.9-9.9-21.9-21.7-32.9-32.6c-2.8-2.7-5.5-5.6-8.1-8.5
			c-1.2-1.3-2.4-1.6-4.1-1.3c-8.3,1.5-16.6,2.9-24.8,4.5c-1.4,0.3-2.2-0.3-3.2-1c-7.9-5.1-15.8-10.4-23.8-15.3
			c-10.7-6.6-22.2-11.5-33.3-17.2c-9.1-4.7-18.3-9.2-27.5-13.7c-1.3-0.6-2-1.4-2.2-3c-1.9-11.7-1.6-23.5-1.5-35.3
			c0-2.8-0.7-3.9-3.6-4.3c-11.8-1.7-23.6-3.9-35.4-5.6c-4.7-0.7-9.5-0.9-14.3-1.3c-10.3-0.9-20.6-1.7-30.8-2.6
			c-4.8-0.4-9.6-0.8-14.3-1.2c-0.9-0.1-1.8-0.1-2.3-1.1c-2.1-3.7-4.7-7.1-6.6-10.9C903.5,25.3,905.3,25.3,907.2,25.3z"/>
		<path class="st1" d="M1043.4,25.3c3.3,0,6.5,0,9.8,0c0.2,5.3,0.5,10.5,0.5,15.8c0,5.9,0.6,11.7,3.1,17.2c0.7,1.7,1.5,2.8,3.3,3.5
			c14.4,5.4,28.8,10.8,43.2,16.3c4.4,1.7,9.1,2.6,13,5.4c7.3,5.3,14.6,10.7,21.9,16.2c1.3,1,2.6,1.5,4.2,1.4
			c7.2,0,14.3-0.1,21.5,0.3c1.3,0.1,2.2,0.4,3.1,1.4c5.1,5.6,10.2,11.3,15.5,16.8c7.1,7.6,13.6,15.8,22.5,21.6
			c1.4,0.9,2.1,2.1,2.5,3.7c2.8,11.3,6.3,22.5,8.3,34c1.4,7.7,4.8,12.5,12,14.7c0.1,0,0.2,0.1,0.3,0.1c0,4,0,8,0,12
			c-5-2.7-10-5.4-15.1-8.1c-0.9-0.5-1.6-1-1.8-2.2c-2.7-14.5-5.5-29-8.2-43.4c-0.4-2.1-1-3.7-2.9-5.2c-3.7-2.9-7.6-5.5-10.9-9
			c-9.8-10.6-19.7-21.1-29.5-31.6c-0.7-0.7-1.2-1.9-2.3-1.7c-4.2,0.8-8.5,0.3-12.7,0.6c-6.7,0.4-13.7,2.2-19.3-3.6
			c-1.4-1.4-3.1-2.4-4.8-3.6c-7-4.6-13.3-10.2-21.4-13.3c-15.9-6.2-31.5-12.8-47.3-19.3c-0.9-0.4-2-0.6-2.3-1.7
			c-0.7-2.4-1.6-4.9-1.8-7.4c-0.5-8.1-0.9-16.3-1-24.4C1046.6,28.9,1046.8,26.3,1043.4,25.3z"/>
		<path class="st5" d="M936,25.3c2.2,1.1,4.6,0.7,6.9,1c13.3,1.4,26.7,2.3,40,4c9.6,1.3,19,3.7,28.4,5.6c3.6,0.7,7.2,1.6,10.9,2.2
			c1.7,0.3,2.1,0.9,2.2,2.6c0.6,7.5,0.3,15.1,0.4,22.6c0.1,4.9,0.9,9.7,1.6,14.6c0.2,1.6,1.4,1.8,2.4,2.2
			c13.9,6.6,27.7,13.4,41.9,19.6c13.7,6,25.5,14.8,37.9,22.9c1.5,1,2.9,1.4,4.8,1.1c8.1-1.3,16.3-2.3,24.4-3.5
			c1.1-0.2,1.7,0.4,2.3,1.1c10.7,11.1,21.3,22.3,32.1,33.3c2.8,2.9,6,5.5,9.1,8.1c2.4,1.9,3.9,4,4.1,7.2c0.6,9,1.5,18,2.2,27.1
			c0.6,6.8,1.2,13.5,1.7,20.3c0.1,1.2,0.6,2,1.7,2.6c12.5,6.9,24.4,14.6,36.2,22.6c0.2,0.1,0.5,0.2,0.8,0.3c0,1.8,0,3.6,0,5.5
			c-1.9-0.2-3.2-1.7-4.6-2.7c-11.7-8.2-23.8-15.7-36.2-22.6c-1.5-0.9-2.1-1.8-2.2-3.6c-0.7-9.7-1.7-19.3-2.6-29
			c-0.6-6.8-1.2-13.5-1.7-20.3c-0.1-1-0.1-1.8-1.1-2.6c-13.3-10.7-24-23.9-36.1-35.8c-0.2-0.2-0.4-0.4-0.6-0.6
			c-3.4-5.7-8.3-6.3-14.3-5c-5.7,1.3-11.6,1.8-17.4,2.6c-1.3,0.2-2.3-0.2-3.3-0.9c-4.6-3.1-9.3-6-13.8-9.3
			c-11.2-8.3-23.9-13.6-36.3-19.6c-11-5.3-22.1-10.5-33.2-15.6c-1.6-0.8-2.2-1.7-2.6-3.4c-2.3-11.5-1.7-23.1-2.1-34.7
			c-0.1-2-0.3-2.9-2.6-3.4c-11.7-2.3-23.3-5-35.1-7.1c-6.2-1.1-12.6-1.3-18.9-1.9c-8.7-0.8-17.5-1.7-26.2-2.6
			c-3.6-0.3-7.2-0.8-10.8-0.9c-2.9-0.1-4.7-1.5-5.6-4.1C925.9,25.3,931,25.3,936,25.3z"/>
		<path class="st1" d="M864.7,25.3c5,8.7,10,17.5,14.9,26.3c0.9,1.6,1.8,2,3.6,2.1c13.5,0.8,26.9,1.7,40.4,2.6
			c6.9,0.4,13.7,0.7,20.6,1.2c10.4,0.8,20.7,1.7,31.1,2.6c3.1,0.3,6.1,0.6,9.2,0.6c1.8,0,2.4,0.6,2.3,2.4c-0.1,4.9,0.1,9.8,0,14.7
			c-0.2,8,0.7,16,0.5,23.9c-0.1,2.1,1.2,2.8,2.6,3.6c12.3,6.9,24.5,13.8,36.8,20.6c16.8,9.1,33.2,19,49.5,29
			c1.8,1.1,3.5,1.4,5.6,0.9c4.5-1,8.8-2.8,13.4-3c-6.4,2.6-13.2,3.7-19.6,6.1c-4.4,1.6-7.9,1-12.1-1.5c-26.9-16.1-54-31.9-81-47.8
			c-1.6-0.9-2.2-2-2.2-3.9c0.1-13.5,0-27.1,0.1-40.6c0-2.1-0.5-2.7-2.7-2.8c-13.4-0.5-26.8-1.1-40.2-1.7
			c-10.9-0.5-21.9-1.1-32.8-1.6c-10.9-0.5-21.9-1.1-32.8-1.6c-1.3-0.1-2.4-0.2-3.1-1.6c-5.2-9.9-10.5-19.7-15.7-29.5
			c-0.2-0.3-0.2-0.7-0.3-1C856.7,25.3,860.7,25.3,864.7,25.3z"/>
		<path class="st1" d="M1057.5,25.3c2.4,0,4.7,0,7.1,0c0,2.5-0.1,5.1,0.1,7.6c0.5,6.2-0.1,12.5,3.5,18.2c1.1,1.7,2.1,2.9,4,3.6
			c17.2,5.9,34.4,11.8,51.7,17.7c1.3,0.5,2.5,1.1,3.6,1.9c7,5.4,14.1,10.8,21.1,16.3c1.5,1.2,3.1,1.6,5,1.7
			c6.7,0.3,13.4,0.7,20.1,1.1c1,0,1.7,0.5,2.3,1.2c5.9,6.4,11.8,12.8,17.6,19.3c6.2,7,12.3,14.1,20.4,19c1.2,0.7,1.8,1.6,2.2,2.9
			c1.8,5.8,3.5,11.6,5.5,17.4c2.2,6.4,3.7,13,6.4,19.3c0,5.3,0,10.5,0,15.8c-3.8-1-6-2.9-6.9-7.1c-2.9-12.7-6.3-25.3-9.3-37.9
			c-0.6-2.5-1.8-4.1-3.8-5.6c-3.7-2.8-7.6-5.3-10.7-8.7c-9.4-10.2-18.8-20.3-28.2-30.6c-1.1-1.2-2.1-1.7-3.7-1.7
			c-5.2,0.1-10.4-0.4-15.5,0.1c-5.6,0.5-10.3-1-14.3-4.7c-0.9-0.9-2-1.6-3-2.3c-8.6-6.4-17.1-12.8-27.7-16.2
			c-13.8-4.4-27.2-10.1-40.7-15.2c-1-0.4-2.5-0.4-3-1.7c-1-2.9-2.5-5.6-2.6-8.8C1058.2,40.3,1058.3,32.8,1057.5,25.3z"/>
		<path class="st6" d="M1008,25.3c6.4,2.4,13.2,3.5,19.8,5.4c2.5,0.7,5.8,0.5,7.4,2.3c1.6,1.9,0.5,5,0.6,7.7
			c0.2,7.2,0.2,14.3,0.7,21.5c0.2,2.9,1.1,5.8,1.7,8.8c0.2,1,1.1,1.4,1.9,1.8c17.2,7.6,34.5,15.1,51.7,22.8
			c6.8,3,12.4,8.1,18.7,12.1c2.8,1.7,5.5,3.6,8,5.6c1.8,1.4,3.6,1.8,5.8,1.6c6.9-0.7,13.9-1.3,20.8-2.1c2.4-0.3,4.2,0.2,6,2.1
			c9.4,10.2,19.1,20.2,28.5,30.3c3.5,3.7,7.5,6.9,11.5,10c2.1,1.6,2.9,3.5,3.3,5.9c2,15.1,4.1,30.1,6,45.2c0.2,1.7,1.3,2.4,2.6,3.2
			c8.6,4.7,17.2,9.4,25.2,15.1c0,1.8,0,3.6,0,5.5c-4.3-2.1-7.9-5.4-12.1-7.8c-4.9-2.7-9.6-5.9-14.7-8.2c-4.3-1.9-5.4-5-5.9-9.2
			c-1.8-14.4-3.9-28.9-5.9-43.3c-0.1-0.9-0.4-1.7-1.2-2.3c-14.6-11.4-26-26-39-39c-1.9-1.9-3.7-2.8-6.4-2.5
			c-6.6,0.8-13.3,1.4-20,2.1c-2.1,0.2-3.8-0.1-5.6-1.4c-7.7-5.4-15.4-10.9-23.3-16.1c-4.9-3.3-10.6-5.1-16-7.5
			c-14.2-6.3-28.4-12.5-42.5-18.7c-1.1-0.5-1.4-1.2-1.7-2.2c-1.7-6.3-2.6-12.7-2.6-19.3c0-5.4-0.4-10.9-0.4-16.3
			c0-1.9-1.2-2-2.4-2.3c-10.1-2.6-20.2-5.1-30.2-7.7c-5.1-1.4-10.4-1.4-15.6-2.1c-0.9-0.1-1.8,0.2-2.6-0.5
			C989.4,25.3,998.7,25.3,1008,25.3z"/>
		<path class="st1" d="M1069,25.3c2.4,0,4.7,0,7.1,0c0,1.6,0.1,3.3,0,4.9c-0.3,5.6,1.4,10.7,4.6,15.2c0.6,0.8,1.2,1.3,2.1,1.6
			c17.2,5.3,34.4,10.6,51.6,16c1.3,0.4,2.6,0.8,3.7,1.7c7.1,5.7,14.3,11.4,21.4,17.1c0.8,0.6,1.5,1.2,2.6,1.3
			c5.5,0.5,11,0.9,16.4,1.8c2.2,0.4,4.9-0.5,6.7,1.5c6.8,7.6,13.5,15.4,20.5,22.9c3.4,3.6,6.1,8,10.5,10.6
			c5.7,3.3,10.2,7.3,11.6,14.1c0,0.1,0.2,0.3,0.4,0.4c0,7.6,0,15.3,0,22.9c-0.7-0.5-0.7-1.3-0.9-1.9c-2.3-7.2-4.6-14.5-6.9-21.8
			c-0.5-1.5-1.3-2.6-2.6-3.6c-4.5-3.4-9.3-6.3-13.1-10.6c-8.4-9.4-17-18.7-25.3-28.1c-1.7-1.9-3.6-2.5-5.9-2.6
			c-5.1-0.2-10.2-0.3-15.2-0.7c-2.8-0.2-5.7,0.1-8.2-2c-4.2-3.5-8.5-6.8-12.9-10c-3.5-2.5-6.4-6-10.6-7.5
			c-16.4-5.7-32.8-11.5-49.3-16.9c-4.9-1.6-6.5-5-7-9.1C1069.4,36.7,1069.3,31,1069,25.3z"/>
		<path class="st7" d="M1043.4,25.3c3.4,1,3.3,3.6,3.3,6.5c0.2,8.1,0.5,16.3,1,24.4c0.2,2.5,1.1,4.9,1.8,7.4
			c0.3,1.1,1.4,1.3,2.3,1.7c15.8,6.5,31.4,13.1,47.3,19.3c8,3.1,14.4,8.7,21.4,13.3c1.7,1.1,3.4,2.1,4.8,3.6
			c5.6,5.9,12.6,4,19.3,3.6c4.2-0.3,8.5,0.2,12.7-0.6c1.1-0.2,1.7,1,2.3,1.7c9.9,10.5,19.7,21.1,29.5,31.6c3.2,3.5,7.2,6.1,10.9,9
			c1.9,1.5,2.5,3.1,2.9,5.2c2.7,14.5,5.5,29,8.2,43.4c0.2,1.1,0.9,1.7,1.8,2.2c5,2.7,10,5.4,15.1,8.1c0,1.8,0,3.6,0,5.5
			c-6.1-3.4-12.2-6.7-18.4-10c-1.6-0.8-2.5-1.8-2.9-3.6c-2.2-12-4.5-24-6.8-36c-0.2-0.9-0.4-1.8-0.4-2.7c-0.3-5.4-2.9-9.3-7.4-12.4
			c-7.1-4.8-12.2-11.9-18.1-18c-5.4-5.5-10.7-11.1-15.7-16.9c-1.9-2.2-4-2.4-6.5-2.2c-6.9,0.4-13.7,0.7-20.6,1
			c-1.3,0.1-2.2-0.6-3.2-1.3c-6.1-4.3-12.3-8.4-18.1-13c-6.1-4.8-13.4-7.2-20.4-10.1c-13.9-5.8-27.8-11.4-41.8-17.1
			c-0.9-0.4-1.9-0.8-2.2-1.9c-1.2-4.6-3-9.1-2.9-14c0.1-6.9-0.4-13.8-0.5-20.7c0-1.5-0.6-2.2-2.1-2.7c-4.4-1.5-8.9-2.4-13.1-4.3
			C1032.5,25.3,1037.9,25.3,1043.4,25.3z"/>
		<path class="st1" d="M1080.4,25.3c2.4,0,4.7,0,7.1,0c-0.9,4.9,1.4,8.7,4.3,12.3c0.9,1.1,1.8,1.9,3.2,2.3
			c14.8,4.1,29.7,8.1,44.4,12.3c3.5,1,7.3,1.3,10.3,3.9c6.2,5.3,12.5,10.4,18.8,15.6c1.1,0.9,2.1,1.9,3.7,2.2
			c5.5,0.9,11.1,1.8,16.5,2.9c2,0.4,4.3,0.3,6,2.1c5.4,6.2,10.8,12.4,16.5,18.4c5.3,5.7,9.5,12.7,16.8,16.3c0,2.9,0,5.8,0,8.7
			c-5.2-3.6-10.7-6.7-15-11.6c-8.3-9.5-16.9-19-25.3-28.4c-0.6-0.7-1.2-1.3-2.2-1.4c-5.1-0.5-10.3-0.9-15.4-1.7
			c-3.1-0.5-6.5,0.2-9.4-2.1c-5.5-4.5-11.1-9-16.8-13.4c-2.4-1.9-4.6-4-7.7-4.9c-16.4-5-32.6-10.2-49-15.1c-4.2-1.3-5.5-4.6-6.2-8
			C1080.3,32.3,1080.6,28.7,1080.4,25.3z"/>
		<path class="st8" d="M1057.5,25.3c0.8,7.5,0.7,15,1,22.5c0.1,3.2,1.6,5.9,2.6,8.8c0.5,1.3,1.9,1.3,3,1.7
			c13.5,5.2,26.9,10.8,40.7,15.2c10.6,3.4,19,9.8,27.7,16.2c1,0.8,2.1,1.5,3,2.3c4.1,3.8,8.7,5.3,14.3,4.7c5.1-0.5,10.3,0,15.5-0.1
			c1.6,0,2.7,0.5,3.7,1.7c9.4,10.2,18.8,20.4,28.2,30.6c3.2,3.4,7.1,6,10.7,8.7c1.9,1.5,3.2,3.1,3.8,5.6c3,12.7,6.5,25.2,9.3,37.9
			c0.9,4.2,3.2,6.2,6.9,7.1c0,1.8,0,3.6,0,5.5c-0.1,0-0.2-0.1-0.3-0.1c-7.2-2.3-10.7-7.1-12-14.7c-2.1-11.5-5.5-22.7-8.3-34
			c-0.4-1.6-1.1-2.8-2.5-3.7c-8.9-5.7-15.4-14-22.5-21.6c-5.2-5.5-10.3-11.2-15.5-16.8c-0.9-0.9-1.8-1.3-3.1-1.4
			c-7.2-0.5-14.3-0.4-21.5-0.3c-1.6,0-2.9-0.5-4.2-1.4c-7.3-5.4-14.5-10.8-21.9-16.2c-3.9-2.8-8.6-3.8-13-5.4
			c-14.4-5.5-28.8-11-43.2-16.3c-1.8-0.7-2.6-1.8-3.3-3.5c-2.5-5.5-3.1-11.3-3.1-17.2c0-5.3-0.3-10.5-0.5-15.8
			C1054.6,25.3,1056.1,25.3,1057.5,25.3z"/>
		<path class="st1" d="M1091.9,25.3c2.5,0,5.1,0,7.6,0c2.3,3.4,4.3,6.7,9,7.8c16,3.7,31.9,7.8,47.9,11.6c2.1,0.5,3.8,1.6,5.4,2.9
			c4.4,3.9,8.8,7.8,13.4,11.5c2.6,2.1,4.7,5,8.3,5.8c5,1,10.1,2.2,15,3.6c2,0.6,4.3,0.6,5.8,2.5c4.4,5.3,8.9,10.5,13.5,15.6
			c3.4,3.7,6.4,7.9,10.2,11.2c0,3.5,0,6.9,0,10.4c-1.4-0.9-2.9-1.9-4-3.2c-8.8-9.9-17.6-19.7-26.3-29.7c-1.2-1.4-2.6-2.1-4.3-2.4
			c-4.6-0.8-9.3-1.4-13.9-2.4c-2.8-0.6-5.8-0.3-8.2-2.4c-4.7-4-9.4-8-14.2-11.8c-2.8-2.2-5.1-5.3-8.7-6.3
			c-16.1-4.5-32.2-9-48.4-13.3c-3.3-0.9-5.5-2.4-7-5.3C1092.1,29.4,1092.1,27.3,1091.9,25.3z"/>
		<path class="st9" d="M1069,25.3c0.3,5.7,0.4,11.4,1.1,17.1c0.5,4.1,2.1,7.6,7,9.1c16.5,5.4,32.9,11.2,49.3,16.9
			c4.2,1.5,7.1,4.9,10.6,7.5c4.4,3.2,8.7,6.5,12.9,10c2.5,2.1,5.4,1.8,8.2,2c5,0.4,10.1,0.5,15.2,0.7c2.3,0.1,4.3,0.7,5.9,2.6
			c8.4,9.4,17,18.6,25.3,28.1c3.8,4.3,8.6,7.2,13.1,10.6c1.3,1,2.1,2.1,2.6,3.6c2.3,7.3,4.5,14.5,6.9,21.8c0.2,0.7,0.2,1.5,0.9,1.9
			c0,5.1,0,10.2,0,15.3c-2.7-6.2-4.2-12.9-6.4-19.3c-2-5.7-3.7-11.6-5.5-17.4c-0.4-1.3-1-2.2-2.2-2.9c-8.1-4.9-14.2-12-20.4-19
			c-5.8-6.5-11.7-12.9-17.6-19.3c-0.6-0.7-1.3-1.1-2.3-1.2c-6.7-0.3-13.4-0.7-20.1-1.1c-1.9-0.1-3.5-0.5-5-1.7
			c-7-5.5-14.1-10.8-21.1-16.3c-1.1-0.8-2.2-1.5-3.6-1.9c-17.2-5.9-34.4-11.9-51.7-17.7c-2-0.7-3-1.9-4-3.6
			c-3.5-5.7-2.9-12-3.5-18.2c-0.2-2.5-0.1-5.1-0.1-7.6C1066.1,25.3,1067.5,25.3,1069,25.3z"/>
		<path class="st1" d="M1228.1,79.2c0,3.8,0,7.6,0,11.4c-0.4-0.3-0.9-0.6-1.3-1c-5.6-6.4-11.2-12.8-16.8-19.2
			c-1.8-2-3.1-4.6-5.9-5.4c-6.2-1.6-12.5-3.1-18.7-4.5c-1.6-0.4-2.9-1.2-4.2-2.3c-5.4-4.8-10.9-9.5-16.4-14.2
			c-1.8-1.5-3.5-3.1-6.1-3.7c-16.4-3.8-32.8-7.9-49.2-11.9c-1.8-0.4-3.5-1.1-3.9-3.2c4.7,0,9.4,0,14.2,0c0.3,0.2,0.6,0.4,0.9,0.5
			c16,3.3,32,6.6,47.9,9.9c1.1,0.2,2.1,0.6,2.9,1.4c4.1,3.8,8.2,7.7,12.5,11.3c2.9,2.4,5.2,5.7,8.8,7.1c3.7,1.4,7.5,2.7,11.4,3.5
			c6.2,1.3,10.6,4.6,14.4,9.6C1221.4,72.3,1224.3,76.2,1228.1,79.2z"/>
		<path class="st10" d="M1080.4,25.3c0.2,3.4-0.1,7,0.7,10.3c0.8,3.4,2,6.7,6.2,8c16.4,4.9,32.7,10.2,49,15.1
			c3.1,0.9,5.3,3.1,7.7,4.9c5.6,4.4,11.2,8.9,16.8,13.4c2.8,2.3,6.2,1.6,9.4,2.1c5.1,0.8,10.2,1.2,15.4,1.7c1,0.1,1.6,0.7,2.2,1.4
			c8.5,9.5,17,18.9,25.3,28.4c4.3,4.9,9.8,8,15,11.6c0,4,0,8,0,12c-0.1-0.1-0.3-0.2-0.4-0.4c-1.3-6.8-5.9-10.8-11.6-14.1
			c-4.4-2.6-7.1-6.9-10.5-10.6c-7-7.5-13.7-15.2-20.5-22.9c-1.8-2-4.5-1.1-6.7-1.5c-5.4-0.9-10.9-1.3-16.4-1.8
			c-1.1-0.1-1.8-0.7-2.6-1.3c-7.1-5.7-14.3-11.4-21.4-17.1c-1.1-0.9-2.4-1.3-3.7-1.7c-17.2-5.3-34.4-10.7-51.6-16
			c-0.9-0.3-1.5-0.8-2.1-1.6c-3.2-4.6-4.9-9.6-4.6-15.2c0.1-1.6,0-3.3,0-4.9C1077.5,25.3,1079,25.3,1080.4,25.3z"/>
		<path class="st11" d="M1091.9,25.3c0.2,2,0.2,4.1,1.2,6c1.6,2.9,3.8,4.4,7,5.3c16.2,4.3,32.3,8.8,48.4,13.3c3.6,1,5.9,4.1,8.7,6.3
			c4.8,3.8,9.5,7.8,14.2,11.8c2.4,2,5.4,1.8,8.2,2.4c4.6,1,9.2,1.6,13.9,2.4c1.7,0.3,3.1,1,4.3,2.4c8.7,10,17.5,19.8,26.3,29.7
			c1.2,1.3,2.6,2.3,4,3.2c0,1.8,0,3.6,0,5.5c-7.4-3.6-11.5-10.6-16.8-16.3c-5.6-6-11-12.2-16.5-18.4c-1.6-1.9-3.9-1.7-6-2.1
			c-5.5-1.1-11-2-16.5-2.9c-1.6-0.2-2.6-1.3-3.7-2.2c-6.3-5.1-12.7-10.3-18.8-15.6c-3-2.6-6.8-2.9-10.3-3.9
			c-14.8-4.2-29.6-8.2-44.4-12.3c-1.4-0.4-2.3-1.1-3.2-2.3c-2.9-3.6-5.2-7.4-4.3-12.3C1088.9,25.3,1090.4,25.3,1091.9,25.3z"/>
		<path class="st12" d="M1105.5,25.3c0.5,2.1,2.1,2.8,3.9,3.2c16.4,4,32.8,8.1,49.2,11.9c2.6,0.6,4.3,2.2,6.1,3.7
			c5.6,4.6,11,9.4,16.4,14.2c1.3,1.1,2.6,1.9,4.2,2.3c6.2,1.5,12.5,2.9,18.7,4.5c2.8,0.7,4.2,3.4,5.9,5.4
			c5.6,6.4,11.2,12.8,16.8,19.2c0.3,0.4,0.8,0.7,1.3,1c0,2.4,0,4.7,0,7.1c-3.8-3.4-6.8-7.5-10.2-11.2c-4.6-5.1-9.1-10.3-13.5-15.6
			c-1.6-1.9-3.8-1.9-5.8-2.5c-5-1.4-10-2.5-15-3.6c-3.7-0.8-5.7-3.7-8.3-5.8c-4.6-3.7-8.9-7.7-13.4-11.5c-1.6-1.4-3.2-2.4-5.4-2.9
			c-16-3.8-31.9-7.9-47.9-11.6c-4.7-1.1-6.7-4.4-9-7.8C1101.5,25.3,1103.5,25.3,1105.5,25.3z"/>
		<path class="st1" d="M1228.1,60.7c0,4,0,8,0,12c-2.4-2.8-4.8-5.6-7.2-8.5c-3.3-4.1-6.9-7.7-12.5-8.8c-4.3-0.9-8.5-2.6-12.7-3.8
			c-1.3-0.4-2.4-1.1-3.5-2c-5.7-5.2-11.4-10.3-17.2-15.4c-1.3-1.1-2.5-2.5-4.3-2.8c-3-0.6-6-1.1-9-1.8c-6.4-1.5-12.9-2.3-19.2-4.3
			c10.5,0,21.1,0,31.6,0c0.4,0.6,1.2,0.4,1.7,0.6c2.2,0.7,4.7,0.2,6.6,2c5.6,5.3,11.3,10.5,16.8,15.8c1.4,1.4,2.9,2.4,4.7,3.1
			c4.6,1.7,9.1,3.5,13.7,5.3c2.4,1,4.8,1.9,6.4,4.2C1225.2,57.9,1226.3,59.6,1228.1,60.7z"/>
		<path class="st0" d="M1227.1,303.2c0.3,0,0.6,0,1,0.1c0,3.3,0,6.5,0,9.8c-0.9,0.1-2.1-0.3-2.2,1.2c-1.1-0.3-1.9-1-2.7-1.7
			c-0.6-1,1.8-2.9-0.7-3.2c-2.2-0.2-3-1.3-3.1-3.2c-0.1-1.2-0.9-1.8-1.8-1.7c-1.8,0.3-3.8,0-5.4,1.1c-0.7-0.1-1.2-0.5-1.6-1
			c0.1-1.9,0.7-4.2-2.6-4.1c-0.8,0-1.4-0.9-1.3-1.5c0.6-3.4-1.8-2.7-3.7-2.8c-1.2-0.1-2.3-0.4-3.4-0.5c-1.3-0.1-2-0.6-2-2
			c0-1.1-0.1-2.3-1.6-2.4c-1.4-0.1-3-0.2-3.4,1.8c-1.1-0.7-2.1-1.3-3.2-1.9c0.1-2,0.2-3.9-2.7-3.8c-1.2,0-1.8-1-1.7-2.3
			c0.1-0.9,0-1.9-1.3-1.9c-2,0.1-4-0.5-5.8,0.6c-0.7-0.4-1.4-0.8-2.1-1.3c0.2-2.3,0.1-4.4-3.1-4.4c-0.8,0-0.9-1-1.3-1.6
			c-1.4-2.4-4.7-3.1-7.1-1.4c-0.7-0.4-1.4-0.9-2.1-1.3c0-1.8,0.3-3.7-2.4-3.9c-0.7,0-0.9-0.8-1.1-1.4c-0.9-2.9-2.7-3.8-5.6-2.9
			c-1.6,0.5-2.8,0-2.9-2.1c-0.1-1.5-0.5-3-0.9-4.5c-0.4-1.6,0-2.4,1.7-2.6c0.7-0.1,1.4-0.4,2.1-0.6c0.5,0.3,1,0.5,1.5,0.8
			c0.1,2.1,0.3,4,3,4.3c0.8,0.1,1.3,0.6,1.3,1.5c0.1,1.2,0.1,2.7,1.5,2.7c1.9,0,4.2,1.2,5.6-1.2c0.5,0.3,1,0.6,1.5,0.9
			c0.2,2.1,0.1,4.3,3.2,4.3c0.8,0,1.2,0.8,1.2,1.6c-0.3,3.3,1.4,3.5,4,2.9c2.5-0.6,4,0.5,4.7,3.1c0.4,1.3,1.5,1.4,2.1,0.9
			c2-1.6,2.7,0.3,2.9,1.2c0.6,2.8,2.6,3,4.8,3.3c2,0.3,4.1,0.5,4,3.4c0,0.7,0.5,0.9,1.1,0.9c1.9,0.1,3.7,0.9,5.5,0
			c0.9,0.1,1.4,0.8,2,1.2c0,1.7-0.4,3.5,2.4,3.3c1.5-0.1,2,1.3,1.9,2.7c-0.1,1.7,1,2.3,2.4,2c1.3-0.2,2.7-0.1,3.7-1.3
			c0.7,0.4,1.4,0.9,2.1,1.3c-0.1,2.1-0.1,4,2.9,3.9c1.4,0,1.8,1.4,1.9,2.5c0.1,1.9,1.2,2.1,2.7,2.3
			C1224.6,304.5,1225.8,303.9,1227.1,303.2z"/>
		<path class="st13" d="M1142.5,25.3c6.3,2,12.8,2.8,19.2,4.3c3,0.7,6,1.2,9,1.8c1.8,0.4,3,1.7,4.3,2.8c5.8,5.1,11.5,10.3,17.2,15.4
			c1,0.9,2.1,1.6,3.5,2c4.2,1.3,8.4,3,12.7,3.8c5.6,1.1,9.2,4.6,12.5,8.8c2.3,2.9,4.8,5.7,7.2,8.5c0,2.2,0,4.4,0,6.5
			c-3.8-3-6.7-6.9-9.5-10.7c-3.8-5-8.3-8.3-14.4-9.6c-3.9-0.8-7.7-2.1-11.4-3.5c-3.6-1.4-5.9-4.7-8.8-7.1
			c-4.3-3.6-8.4-7.5-12.5-11.3c-0.9-0.8-1.9-1.1-2.9-1.4c-16-3.3-32-6.6-47.9-9.9c-0.3-0.1-0.6-0.3-0.9-0.5
			C1127.3,25.3,1134.9,25.3,1142.5,25.3z"/>
		<path class="st1" d="M1186.7,25.3c4.5,0,9.1,0,13.6,0c1.8,1.7,3.6,3.2,5.3,5.1c3.8,4.3,8.3,7.7,13.7,9.9c3,1.2,5.9,2.8,8.8,4.1
			c0,3.1,0,6.2,0,9.3c-2.5-3.5-6.3-4.8-10-6.4c-6.6-2.7-13.8-4.2-18.9-10C1195.3,33,1190.4,29.7,1186.7,25.3z"/>
		<path class="st14" d="M1186.7,25.3c3.8,4.4,8.6,7.7,12.5,12c5.1,5.7,12.3,7.3,18.9,10c3.7,1.5,7.6,2.8,10,6.4c0,2.4,0,4.7,0,7.1
			c-1.7-1.1-2.9-2.8-4-4.4c-1.7-2.4-4-3.3-6.4-4.2c-4.5-1.8-9.1-3.6-13.7-5.3c-1.8-0.7-3.3-1.7-4.7-3.1
			c-5.6-5.3-11.3-10.5-16.8-15.8c-1.9-1.8-4.4-1.3-6.6-2c-0.6-0.2-1.3,0-1.7-0.6C1178.3,25.3,1182.5,25.3,1186.7,25.3z"/>
		<path class="st1" d="M1228.1,30.7c0,2.7,0,5.5,0,8.2c-1.3-0.5-2.7-1.1-4-1.6c-6.6-2.6-12.5-6.1-16.7-12c4.4,0,8.7,0,13.1,0
			C1222.2,28.2,1225.5,28.9,1228.1,30.7z"/>
		<path class="st15" d="M1207.4,25.3c4.2,5.9,10.1,9.4,16.7,12c1.3,0.5,2.7,1.1,4,1.6c0,1.8,0,3.6,0,5.5c-2.9-1.4-5.8-2.9-8.8-4.1
			c-5.4-2.2-9.9-5.5-13.7-9.9c-1.6-1.8-3.5-3.4-5.3-5.1C1202.6,25.3,1205,25.3,1207.4,25.3z"/>
		<path class="st15" d="M1228.1,30.7c-2.6-1.8-5.9-2.5-7.6-5.5c0.7,0,1.5,0,2.2,0c1.8,0,4.3-0.7,5.2,0.2
			C1228.8,26.4,1228.1,28.9,1228.1,30.7z"/>
		<path class="st1" d="M1225.8,314.3c0.1-1.5,1.3-1.1,2.2-1.2c0,0.9,0,1.8,0,2.7C1227.3,315.3,1226.6,314.8,1225.8,314.3z"/>
		<path class="st1" d="M1153,255.8c-0.7,0.2-1.4,0.5-2.1,0.6c-1.7,0.2-2.1,1.1-1.7,2.6c0.4,1.5,0.8,3,0.9,4.5
			c0.1,2.1,1.2,2.6,2.9,2.1c2.9-0.9,4.7,0,5.6,2.9c0.2,0.6,0.5,1.4,1.1,1.4c2.7,0.2,2.4,2.1,2.4,3.9c-4.8-3-9.6-6.1-14.5-9.1
			c-1.1-0.7-1.4-1.5-1.4-2.7c0.5-7.7,1.1-15.4,1.6-23c0.3-5.4,0.6-10.8,1.1-16.3c0.5-6,0.7-11.9,1.2-17.9c0.3-2.9-0.3-5.3-2.8-7.1
			c-0.6-0.5-1.1-1.2-1.6-1.8c1.3,0,2.8,0.3,4-0.1c1.9-0.6,0.4-2.6,1.1-3.7c0.1-0.2,0.4-0.4,0.5-0.6c2.2,1.5,2.9,3.3,2.8,6.1
			c-0.5,9.4-0.6,18.8-0.8,28.3c-0.3,9-0.6,17.9-1,26.9C1152.3,253.8,1152.1,254.9,1153,255.8z"/>
		<path class="st0" d="M1151.4,191.4c-0.2,0.2-0.4,0.4-0.5,0.6c-0.7,1.2,0.8,3.1-1.1,3.7c-1.2,0.4-2.7,0.1-4,0.1
			c-0.3-0.3-0.6-0.6-0.9-0.9c1.7-1.7,0.4-2.7-0.9-3.4c-0.9-0.5-2.1-0.4-3.1-0.6c0,0,0,0,0,0c0.6-3.8,0.5-3.8-3-3.8
			c-0.3,0-0.5,0-0.8,0c-0.2-0.3-0.4-0.5-0.6-0.8c0.2-3.6,0.2-3.6-3.7-3.6c-0.3-0.3-0.6-0.6-0.9-0.9c0.4-0.2,0.8-0.5,0.7-1
			c-0.3-2.8-2.3-2.6-4.2-2.4c-0.2-0.2-0.4-0.4-0.5-0.5c0-0.7,0.1-1.5,0-2.2c-0.2-1.8-1.6-2.3-3.4-1.3c-0.3-0.3-0.6-0.6-0.9-0.9
			c0-4.4,0-4.4-4.4-4.4c0,0,0,0,0,0c0-0.7,0.2-1.5,0-2.2c-0.5-1.5-1.4-2.5-2.9-0.8c-0.5-0.5-1-0.9-1.4-1.4c0-3.9,0-3.9-3.8-3.8
			c0,0,0,0,0,0c-0.2-4.1-0.5-4.4-4.4-4.4c-0.2-0.2-0.4-0.4-0.5-0.5c0.1-4.4,0.9-5.1,5-4.4c0.2,0,0.4,0,0.5,0c0,0,0,0,0,0
			c0,0.6-0.1,1.2-0.1,1.9c0,0.6,0,1.3,0.9,1.4c0.9,0.1,1.3-0.4,1.4-1.2c0.9,0.9,1.8,1.8,2.8,2.7c-0.6,1.1-1.8,2.1-1,3.4
			c0.9,1.4,2.3,0.2,3.4,0.1c0.3,0,0.5-0.1,0.8-0.1c0,0,0,0,0,0c-0.2,4.1,0.9,5.2,4.4,4.4c0.2,0.2,0.3,0.3,0.5,0.5
			c0,0.4,0,0.9-0.1,1.3c-0.4,2.7-0.1,3,2.6,2.6c0.4-0.1,0.9,0,1.3-0.1c0.2,0.2,0.3,0.3,0.5,0.5c-0.1,4-0.1,4,3.8,3.9c0,0,0,0,0,0
			c0.5,4.1,1,4.6,3.8,3.9c0.8,0.5,1.4,1.2,1.9,2c-1.1,0.7-1.3,1.8-0.4,2.6c0.7,0.7,1.8,0.5,2.5-0.6c0.5,0.5,1,0.9,1.4,1.4
			c0,3.8,0,3.8,3.3,3.3c0.4,0.3,0.7,0.7,1.1,1c-0.1,4-0.1,4,3.9,3.9C1150.7,190.7,1151,191.1,1151.4,191.4z"/>
		<path class="st1" d="M1192.6,293.1c0.4-2,2-1.8,3.4-1.8c1.5,0.1,1.6,1.2,1.6,2.4c0,1.3,0.7,1.9,2,2c1.2,0.1,2.3,0.4,3.4,0.5
			c1.9,0.1,4.3-0.6,3.7,2.8c-0.1,0.6,0.5,1.5,1.3,1.5c3.2-0.1,2.7,2.2,2.6,4.1C1204.4,300.9,1198.4,297.2,1192.6,293.1z"/>
		<path class="st1" d="M1212.2,305.6c1.6-1.1,3.6-0.8,5.4-1.1c0.8-0.1,1.7,0.5,1.8,1.7c0.1,2,0.9,3,3.1,3.2c2.5,0.3,0.1,2.2,0.7,3.2
			C1219.3,310.5,1215.7,308.1,1212.2,305.6z"/>
		<path class="st1" d="M1164.3,275c2.4-1.6,5.7-0.9,7.1,1.4c0.4,0.6,0.5,1.6,1.3,1.6c3.2,0,3.3,2,3.1,4.4
			C1171.9,280,1168.1,277.5,1164.3,275z"/>
		<path class="st1" d="M1177.9,283.7c1.9-1,3.9-0.5,5.8-0.6c1.3-0.1,1.4,0.9,1.3,1.9c-0.1,1.3,0.4,2.3,1.7,2.3
			c2.9-0.1,2.8,1.8,2.7,3.8C1185.5,288.6,1181.7,286.2,1177.9,283.7z"/>
		<path class="st1" d="M1111.5,151.7c-0.2,0-0.4,0.1-0.5,0c-4.1-0.7-4.9,0-5,4.4c-0.4-0.3-0.9-0.6-1.2-1c-2-2.4-4.1-4.2-7.5-2.8
			c3.4-2,7.4-2.3,11.1-3.2C1109.9,148.8,1110.7,150.6,1111.5,151.7z"/>
		<path class="st1" d="M1119.1,169.2c4.4,0,4.4,0,4.4,4.4C1121.8,172.3,1120.4,170.8,1119.1,169.2z"/>
		<path class="st1" d="M1140.9,191c1,0.2,2.2,0.2,3.1,0.6c1.4,0.7,2.7,1.7,0.9,3.4C1143.4,193.9,1142,192.5,1140.9,191z"/>
		<path class="st1" d="M1106.5,156.7c3.9,0,4.1,0.3,4.4,4.4C1109.3,159.7,1107.8,158.3,1106.5,156.7z"/>
		<path class="st1" d="M1137,187.2c0.3,0,0.5,0,0.8,0c3.5,0,3.6,0.1,3,3.8C1139.4,189.9,1138.1,188.6,1137,187.2z"/>
		<path class="st1" d="M1110.9,161c3.8,0,3.8,0,3.8,3.8C1113.3,163.7,1112,162.5,1110.9,161z"/>
		<path class="st1" d="M1124.3,174.4c1.8-0.9,3.2-0.4,3.4,1.3c0.1,0.7,0,1.4,0,2.2C1126.5,176.9,1125.3,175.8,1124.3,174.4z"/>
		<path class="st1" d="M1128.3,178.5c1.9-0.1,3.9-0.3,4.2,2.4c0.1,0.5-0.3,0.8-0.7,1C1130.5,181,1129.3,179.8,1128.3,178.5z"/>
		<path class="st1" d="M1132.7,182.8c3.9,0,3.9,0,3.7,3.6C1134.9,185.5,1133.8,184.2,1132.7,182.8z"/>
		<path class="st1" d="M1116.2,166.3c1.5-1.7,2.3-0.7,2.9,0.8c0.2,0.6,0,1.4,0,2.2C1117.9,168.4,1117,167.4,1116.2,166.3z"/>
		<path class="st1" d="M1095.1,152.8c0.6-0.9,1.4-0.6,2.2-0.6C1096.7,153,1095.9,152.9,1095.1,152.8z"/>
		<path class="st1" d="M1201,286.3c-1.8,1-3.7,0.2-5.5,0c-0.6,0-1.1-0.3-1.1-0.9c0.1-2.9-2-3.1-4-3.4c-2.2-0.3-4.2-0.5-4.8-3.3
			c-0.2-0.9-0.9-2.9-2.9-1.2c-0.6,0.5-1.7,0.4-2.1-0.9c-0.7-2.5-2.3-3.7-4.7-3.1c-2.7,0.6-4.3,0.4-4-2.9c0.1-0.8-0.3-1.6-1.2-1.6
			c-3.1,0-3-2.3-3.2-4.3C1178.9,271.6,1190,278.8,1201,286.3z"/>
		<path class="st1" d="M1166,263.8c-1.5,2.3-3.7,1.2-5.6,1.2c-1.5,0-1.4-1.6-1.5-2.7c-0.1-0.8-0.5-1.4-1.3-1.5
			c-2.7-0.2-2.9-2.2-3-4.3C1158.4,258.9,1162.4,261.1,1166,263.8z"/>
		<path class="st1" d="M1227.1,303.2c-1.3,0.7-2.5,1.3-4.1,1.2c-1.5-0.1-2.6-0.4-2.7-2.3c-0.1-1.2-0.5-2.6-1.9-2.5
			c-3,0.1-3-1.8-2.9-3.9C1219.5,298,1223.5,300.3,1227.1,303.2z"/>
		<path class="st1" d="M1213.5,294.3c-1,1.1-2.4,1.1-3.7,1.3c-1.5,0.2-2.5-0.3-2.4-2c0.1-1.4-0.5-2.8-1.9-2.7
			c-2.8,0.1-2.4-1.6-2.4-3.3C1206.6,289.6,1210.1,291.8,1213.5,294.3z"/>
		<path class="st1" d="M1119.7,159.8c-0.3,0-0.5,0.1-0.8,0.1c-1.2,0.1-2.5,1.3-3.4-0.1c-0.8-1.3,0.4-2.3,1-3.4
			C1117.7,157.5,1118.9,158.5,1119.7,159.8z"/>
		<path class="st1" d="M1124.1,164.2c-3.4,0.8-4.5-0.3-4.4-4.4C1121.4,161,1122.7,162.7,1124.1,164.2z"/>
		<path class="st1" d="M1128.5,168.6c-0.4,0-0.9,0-1.3,0.1c-2.7,0.4-3,0.1-2.6-2.6c0.1-0.4,0-0.9,0.1-1.3
			C1125.9,166,1127.2,167.3,1128.5,168.6z"/>
		<path class="st1" d="M1150.3,190.4c-4,0.1-4,0.1-3.9-3.9C1147.7,187.8,1149,189.1,1150.3,190.4z"/>
		<path class="st1" d="M1132.8,173c-3.9,0.1-3.9,0.1-3.8-3.9C1130.4,170.2,1131.7,171.5,1132.8,173z"/>
		<path class="st1" d="M1136.6,176.8c-2.9,0.7-3.3,0.3-3.8-3.9C1134.2,174,1135.4,175.4,1136.6,176.8z"/>
		<path class="st1" d="M1145.3,185.5c-3.3,0.5-3.3,0.5-3.3-3.3C1143.3,183.2,1144.4,184.3,1145.3,185.5z"/>
		<path class="st1" d="M1140.5,180.8c-0.6,1.1-1.7,1.2-2.5,0.6c-0.9-0.8-0.7-1.9,0.4-2.6C1139.4,179.3,1140.1,180,1140.5,180.8z"/>
		<path class="st1" d="M1113.7,153.7c-0.1,0.8-0.5,1.3-1.4,1.2c-0.8-0.1-0.9-0.8-0.9-1.4c0-0.6,0-1.2,0.1-1.9
			C1112.5,152.1,1113.1,152.9,1113.7,153.7z"/>
	</g>
</g>
</svg>
