<svg width="87" height="84" viewBox="0 0 87 84" fill="none" xmlns="http://www.w3.org/2000/svg">
<g clip-path="url(#clip0_115_1498)">
<path d="M50.5846 62.7644H41.3926V0.00170898H50.5846V62.7644Z" fill="black"/>
<path d="M63.6404 83.4245H61.0762V65.9138H63.6404V83.4245Z" fill="black"/>
<path d="M71.5569 44.2039C74.4983 43.0408 77.2565 41.4235 79.5546 39.1844C84.0587 34.7911 86.4491 29.0523 86.4491 22.8655C86.4491 16.858 84.0587 10.9411 79.5546 6.72599C74.9583 2.51145 69.2594 0.00170898 62.9165 0.00170898H54.8271V9.41632H62.9165C70.5459 9.41632 76.8887 15.3338 76.8887 22.8655C76.8887 30.3084 70.5459 36.4047 62.9165 36.4047H54.8271V45.8193H60.5261L74.4983 62.7662H87.0001L71.5569 44.2039Z" fill="black"/>
<path d="M12.702 75.645H1.23877V65.9121H15.3434V68.4635H3.85448V73.0906H15.3434V83.4222H1.23877V80.8702H12.702V75.645Z" fill="black"/>
<path d="M24.0619 68.4903V83.4263H21.4456V68.4903H16.7783V65.9138H28.7323V68.4903H24.0619Z" fill="black"/>
<path d="M42.499 65.9138V83.4245H30.7007V65.9138H33.3164V80.8499H39.8563V65.9138H42.499Z" fill="black"/>
<path d="M58.4486 74.6692C58.4468 75.8574 58.1937 77.0325 57.7049 78.121C57.2085 79.1655 56.5122 80.1079 55.6534 80.8976C53.8579 82.5234 51.4989 83.4245 48.9855 83.4245H44.728V65.9138H48.9855C51.4957 65.9138 53.8579 66.8143 55.6534 68.4407C56.5393 69.231 57.2457 70.1935 57.7271 71.2662C58.2086 72.339 58.4543 73.4982 58.4486 74.6692ZM55.7557 74.6692C55.7557 71.2669 52.7295 68.5405 48.9855 68.5405H47.3707V80.7978H48.9867C52.7295 80.7978 55.7557 78.0488 55.7557 74.6692Z" fill="black"/>
<path d="M75.8626 83.9993C70.5546 83.9993 66.2715 79.797 66.2715 74.644C66.2715 73.4155 66.5196 72.199 67.0016 71.064C67.4836 69.9289 68.19 68.8976 69.0807 68.0289C69.9713 67.1602 71.0286 66.4711 72.1923 66.0009C73.3559 65.5308 74.6031 65.2888 75.8626 65.2888C77.1222 65.2888 78.3694 65.5308 79.533 66.0009C80.6967 66.4711 81.754 67.1602 82.6446 68.0289C83.5352 68.8976 84.2417 69.9289 84.7237 71.064C85.2057 72.199 85.4538 73.4155 85.4538 74.644C85.4506 79.797 81.1424 83.9993 75.8626 83.9993ZM70.9902 79.3722C71.6288 79.9984 72.3881 80.4954 73.2242 80.8345C74.0604 81.1736 74.9571 81.3481 75.8626 81.3481C76.7682 81.3481 77.6648 81.1736 78.501 80.8345C79.3372 80.4954 80.0964 79.9984 80.7351 79.3722C82.0436 78.121 82.7358 76.4198 82.7358 74.644C82.7358 72.8432 82.0454 71.142 80.7351 69.8914C80.0982 69.2615 79.3399 68.7605 78.5039 68.4174C77.6678 68.0743 76.7704 67.8957 75.8634 67.8921C74.9563 67.8884 74.0575 68.0597 73.2186 68.396C72.3796 68.7324 71.6171 69.2272 70.9749 69.852C70.3327 70.4768 69.8234 71.2192 69.4764 72.0367C69.1294 72.8541 68.9515 73.7304 68.9529 74.6152C68.9544 75.4999 69.1351 76.3757 69.4847 77.192C69.8343 78.0084 70.346 78.7493 70.9902 79.3722Z" fill="black"/>
<path d="M0 62.7645H37.1509V53.7576H15.9942L26.5845 35.8655H37.1509V26.899H31.8918L37.1509 18.0145V0L0 62.7645Z" fill="#00BFFF"/>
<path d="M75.702 69.0872H75.8275C75.8996 69.0982 75.9718 69.1135 76.0446 69.119C76.605 69.1631 77.1316 69.3118 77.5972 69.6258C78.2875 70.0904 78.3654 70.9401 77.7723 71.5118C77.6182 71.6513 77.4542 71.78 77.2815 71.8969C76.9425 72.1328 76.6522 72.4292 76.4262 72.7704C76.3245 72.9283 76.3414 72.954 76.5046 73.0348C76.669 73.1142 76.8264 73.2065 76.9753 73.3109C77.0744 73.3813 77.1391 73.3843 77.2364 73.3109C77.5232 73.0868 77.8106 72.8616 78.115 72.6602C78.5158 72.3826 78.9773 72.1994 79.463 72.1252C80.1244 72.034 80.6554 72.2476 81.0319 72.7912C81.3382 73.2325 81.4781 73.7265 81.5139 74.253C81.5189 74.3289 81.5352 74.4041 81.5465 74.4801V74.6025C81.5352 74.6729 81.5195 74.7433 81.5133 74.8143C81.4643 75.3597 81.3168 75.8745 80.9943 76.3293C80.5769 76.9188 79.8326 77.0706 79.2527 76.6568C79.03 76.4976 78.8586 76.2626 78.6879 76.0447C78.4281 75.7178 78.1476 75.4166 77.7861 75.1944C77.6079 75.0848 77.5859 75.0989 77.4962 75.2771C77.417 75.4327 77.3242 75.5814 77.2188 75.7215C77.146 75.8176 77.1429 75.8806 77.2188 75.9761C77.451 76.2601 77.6857 76.5448 77.8947 76.8447C78.1748 77.2323 78.3597 77.6776 78.435 78.1461C78.5304 78.7993 78.302 79.3153 77.7384 79.6832C77.295 79.9645 76.7821 80.1244 76.2536 80.146C76.1751 80.1509 76.098 80.1668 76.0208 80.1772H75.8952C75.8231 80.1662 75.7515 80.1509 75.6787 80.1454C75.1177 80.1013 74.5918 79.9525 74.1255 79.6391C73.5161 79.2284 73.3636 78.4901 73.7973 77.9251C73.9642 77.7097 74.2052 77.5432 74.4292 77.3742C74.7787 77.1265 75.0784 76.8181 75.3135 76.4646C75.3863 76.3507 75.3649 76.2889 75.2344 76.2295C75.0638 76.1511 74.901 76.0575 74.748 75.9498C74.6495 75.8806 74.5855 75.8751 74.4876 75.9498C74.1964 76.1769 73.9046 76.4052 73.5965 76.6091C73.199 76.8821 72.7425 77.0624 72.2622 77.1361C71.6209 77.2261 71.1012 77.0253 70.7216 76.5081C70.4676 76.1529 70.3044 75.7436 70.2459 75.3144C70.217 75.1271 70.2013 74.9385 70.1831 74.7506V74.6582C70.1938 74.5878 70.2095 74.5174 70.2157 74.4464C70.2647 73.901 70.4122 73.3862 70.7347 72.9314C71.1527 72.3419 71.8957 72.1901 72.4756 72.6039C72.699 72.763 72.871 72.9975 73.0404 73.216C73.3103 73.5557 73.6052 73.8649 73.9818 74.0913C74.0991 74.1617 74.1619 74.1409 74.2228 74.0136C74.3029 73.8472 74.3989 73.6886 74.5096 73.5398C74.5805 73.4431 74.5861 73.3807 74.5096 73.2852C74.2774 73.0011 74.0433 72.7165 73.8343 72.4159C73.5539 72.0285 73.3689 71.5831 73.294 71.1145C73.1973 70.4547 73.4314 69.9368 74.0031 69.5689C74.4441 69.2933 74.9521 69.1366 75.4754 69.1147C75.5488 69.1116 75.6241 69.0982 75.702 69.0872ZM76.5805 74.6288C76.5799 74.4898 76.5372 74.3541 76.4576 74.2387C76.3781 74.1234 76.2654 74.0335 76.1336 73.9805C76.0019 73.9275 75.857 73.9137 75.7172 73.9409C75.5774 73.968 75.449 74.0349 75.3481 74.133C75.2472 74.2312 75.1783 74.3563 75.1502 74.4926C75.122 74.6288 75.1358 74.7702 75.1897 74.8988C75.2437 75.0275 75.3355 75.1377 75.4536 75.2155C75.5717 75.2934 75.7107 75.3355 75.8532 75.3364C76.045 75.3338 76.2283 75.2584 76.3643 75.1264C76.5002 74.9944 76.5782 74.8159 76.5818 74.6288H76.5805Z" fill="black"/>
</g>
<defs>
<clipPath id="clip0_115_1498">
<rect width="87" height="84" fill="white"/>
</clipPath>
</defs>
</svg>
