<svg width="17" height="30" viewBox="0 0 17 30" fill="none" xmlns="http://www.w3.org/2000/svg">
<path d="M15.8927 2.9932C11.2356 7.58503 11.9521 14.7279 11.9847 15.034L12.0498 15.6122L12.6034 15.6803C12.7663 15.7143 13.7107 15.9184 13.5805 17.449C13.4828 18.7755 12.0498 18.9796 11.4636 19.0476C10.9751 18.3673 9.37931 15.5442 9.21647 7.44898C9.21647 7.04082 9.21647 6.63265 9.21647 6.22449C9.21647 6.22449 9.34674 3.33333 9.47701 2.10884L8.53257 0L7.55556 2.04082C7.68582 3.26531 7.81609 6.15646 7.81609 6.15646C7.81609 6.56463 7.81609 6.97279 7.81609 7.38095C7.65326 15.4762 6.05747 18.3333 5.56897 18.9796C4.95019 18.9456 3.54981 18.7075 3.45211 17.381C3.32184 15.8503 4.26628 15.6463 4.42912 15.6122L4.98276 15.5442L5.04789 14.966C5.08046 14.6599 5.79693 7.51701 1.13985 2.92517L0 1.87075V23.8776H4.72222C5.11303 27.1088 7.94636 29.5238 8.07663 29.6259L8.5 30L8.92337 29.6259C9.05364 29.5238 11.9195 27.1088 12.2778 23.8776H17V1.87075L15.8927 2.9932ZM3.74521 14.3878C3.0613 14.6599 2.24713 15.3742 2.11686 16.7347H1.36782V5.37415C3.74521 8.70748 3.77778 12.9592 3.74521 14.3878ZM4.62452 21.7687L4.65709 22.449H1.36782V18.1293H2.21456C2.5728 19.4898 3.74521 20.068 4.81992 20.3061C4.62452 20.9864 4.62452 21.6667 4.62452 21.7687ZM5.99234 21.7347C5.99234 21.3605 6.0249 20.8163 6.18774 20.4762C7.39272 20.7483 7.71839 21.7687 7.81609 22.483H6.0249L5.99234 21.7347ZM7.84866 27.381C7.16475 26.5306 6.35057 25.3061 6.1226 23.8776H7.84866V27.381ZM8.6954 20.2041C8.63027 20.2721 8.56513 20.3742 8.5 20.4762C8.43487 20.3742 8.36973 20.3061 8.3046 20.2041C7.94636 19.7959 7.52299 19.4558 7.03448 19.2517C7.49042 18.4354 8.04406 17.0748 8.5 14.7959C8.95594 17.0748 9.50958 18.4694 9.96552 19.2517C9.47701 19.4558 9.05364 19.7619 8.6954 20.2041ZM9.18391 27.3469V23.8776H10.91C10.7146 25.2721 9.90038 26.4966 9.18391 27.3469ZM11.0402 21.7347L11.0077 22.449H9.21647C9.31418 21.7347 9.63985 20.7143 10.8448 20.4422C11.0077 20.8163 11.0402 21.3605 11.0402 21.7347ZM13.2874 14.3878C13.2222 12.9932 13.2874 8.7415 15.6648 5.37415V16.7347H14.9157C14.7854 15.3401 14.0038 14.6599 13.2874 14.3878ZM12.3755 22.449L12.408 21.7687C12.408 21.6667 12.4406 20.9864 12.2452 20.3061C13.2874 20.102 14.4598 19.4898 14.8506 18.1293H15.6973V22.449H12.3755Z" fill="#F2CD13"/>
</svg>
